<svg width="107" height="23" viewBox="0 0 107 23" fill="none" xmlns="http://www.w3.org/2000/svg">
<path d="M13.5409 21.7846H11.5662C11.3781 21.7846 11.2005 21.6905 11.0333 21.5025L3.60464 12.1304H2.57027V21.3771C2.57027 21.5025 2.51803 21.607 2.41354 21.6905C2.32996 21.7532 2.22547 21.7846 2.1001 21.7846H0.470171C0.344792 21.7846 0.229861 21.7532 0.125379 21.6905C0.041793 21.607 0 21.5025 0 21.3771V0.438826C0 0.313448 0.041793 0.208965 0.125379 0.125379C0.208965 0.041793 0.313447 0 0.438826 0H2.13144C2.25682 0 2.3613 0.041793 2.44489 0.125379C2.52847 0.208965 2.57027 0.313448 2.57027 0.438826V9.77955H3.47926L11.0647 0.282103C11.2319 0.0940342 11.4199 0 11.6289 0H13.6036C13.7499 0 13.8544 0.041793 13.9171 0.125379C14.0006 0.208965 14.0424 0.302999 14.0424 0.407482C14.0424 0.53286 14.0006 0.637342 13.9171 0.720928L5.79877 10.7826L13.8857 21.001C13.9693 21.0845 14.0111 21.189 14.0111 21.3144C14.0111 21.4607 13.9588 21.5756 13.8544 21.6592C13.7708 21.7428 13.6663 21.7846 13.5409 21.7846Z" fill="#00092B" fill-opacity="0.8"/>
<path d="M21.8935 22.1921C20.8278 22.1921 19.877 21.9935 19.0412 21.5965C18.2262 21.1786 17.5784 20.5935 17.0978 19.8412C16.6381 19.0889 16.4082 18.2217 16.4082 17.2396C16.4082 15.8604 16.8784 14.7216 17.8187 13.823C18.7591 12.9245 20.0547 12.3603 21.7055 12.1304C22.207 12.0468 22.6772 11.9841 23.116 11.9423C23.5757 11.8796 24.025 11.817 24.4638 11.7543C24.9026 11.6916 25.3415 11.6289 25.7803 11.5662C26.3863 11.4617 26.8251 11.2528 27.0968 10.9393C27.3684 10.6259 27.5042 10.1661 27.5042 9.56014V9.30938C27.5042 8.28545 27.1072 7.47049 26.3132 6.86449C25.5191 6.2585 24.5474 5.9555 23.3981 5.9555C22.4578 5.9555 21.6428 6.14357 20.9532 6.5197C20.2845 6.89584 19.7621 7.39735 19.386 8.02425C19.2188 8.2959 19.0098 8.43173 18.7591 8.43173C18.6337 8.43173 18.4979 8.37949 18.3516 8.275L17.5053 7.7108C17.3172 7.54363 17.2232 7.36601 17.2232 7.17794C17.2232 7.09435 17.2545 6.98987 17.3172 6.86449C17.9023 5.88236 18.7173 5.09874 19.7621 4.51364C20.8278 3.92854 22.0607 3.63599 23.4608 3.63599C24.7355 3.63599 25.8534 3.8763 26.8147 4.35691C27.7759 4.81664 28.5282 5.47488 29.0715 6.33163C29.6148 7.16749 29.8864 8.16007 29.8864 9.30938V21.3457C29.8864 21.4711 29.8447 21.5756 29.7611 21.6592C29.6775 21.7428 29.573 21.7846 29.4476 21.7846H28.1311C27.8386 21.7846 27.6923 21.6383 27.6923 21.3457V19.183C27.0445 20.1233 26.2191 20.8651 25.2161 21.4084C24.2131 21.9309 23.1055 22.1921 21.8935 22.1921ZM22.1443 19.9979C23.2309 19.9979 24.1817 19.7158 24.9967 19.1516C25.8116 18.5874 26.449 17.8978 26.9087 17.0829C27.3684 16.247 27.5983 15.4529 27.5983 14.7007V13.4155C26.9714 13.4782 26.3863 13.5514 25.843 13.6349C25.2997 13.6976 24.7146 13.7812 24.0877 13.8857C23.4817 13.9693 22.7503 14.0738 21.8935 14.1992C19.8039 14.5126 18.7591 15.4947 18.7591 17.1456C18.7591 18.0023 19.0725 18.6919 19.6994 19.2143C20.3263 19.7367 21.1413 19.9979 22.1443 19.9979Z" fill="#00092B" fill-opacity="0.8"/>
<path d="M38.4651 21.7846C38.1517 21.7846 37.88 21.6801 37.6501 21.4711C37.4412 21.2413 37.3367 20.9696 37.3367 20.6562V6.36298H34.0768C33.9515 6.36298 33.847 6.32118 33.7634 6.2376C33.6798 6.15401 33.638 6.04953 33.638 5.92415V4.48229C33.638 4.35692 33.6798 4.25243 33.7634 4.16885C33.847 4.08526 33.9515 4.04347 34.0768 4.04347H38.6532C38.9666 4.04347 39.2278 4.1584 39.4368 4.38826C39.6666 4.59723 39.7816 4.85843 39.7816 5.17188V19.4651H43.0101C43.1355 19.4651 43.2399 19.5069 43.3235 19.5904C43.4071 19.674 43.4489 19.7785 43.4489 19.9039V21.3457C43.4489 21.4711 43.4071 21.5756 43.3235 21.6592C43.2399 21.7428 43.1355 21.7846 43.0101 21.7846H38.4651Z" fill="#00092B" fill-opacity="0.8"/>
<path d="M84.2043 22.1921C82.9505 22.1921 81.8012 21.8891 80.7564 21.2831C79.7325 20.6562 78.9175 19.8308 78.3115 18.8068C77.7055 17.762 77.4025 16.6127 77.4025 15.3589V10.4691C77.4025 9.19445 77.7055 8.04514 78.3115 7.02122C78.9175 5.99729 79.7325 5.18232 80.7564 4.57633C81.8012 3.94943 82.9505 3.63599 84.2043 3.63599C85.4581 3.63599 86.597 3.94943 87.6209 4.57633C88.6448 5.18232 89.4598 5.99729 90.0658 7.02122C90.6927 8.04514 91.0061 9.19445 91.0061 10.4691V15.3589C91.0061 16.6127 90.6927 17.762 90.0658 18.8068C89.4598 19.8308 88.6448 20.6562 87.6209 21.2831C86.597 21.8891 85.4581 22.1921 84.2043 22.1921ZM84.2043 19.8725C85.0193 19.8725 85.7506 19.6845 86.3984 19.3083C87.0671 18.9113 87.5895 18.3784 87.9657 17.7098C88.3627 17.0411 88.5612 16.3097 88.5612 15.5156V10.3124C88.5612 9.49745 88.3627 8.76607 87.9657 8.11828C87.5895 7.44959 87.0671 6.92718 86.3984 6.55104C85.7506 6.15401 85.0193 5.9555 84.2043 5.9555C83.3894 5.9555 82.6475 6.15401 81.9788 6.55104C81.331 6.92718 80.8086 7.44959 80.4116 8.11828C80.0355 8.76607 79.8474 9.49745 79.8474 10.3124V15.5156C79.8474 16.3097 80.0355 17.0411 80.4116 17.7098C80.8086 18.3784 81.331 18.9113 81.9788 19.3083C82.6475 19.6845 83.3894 19.8725 84.2043 19.8725Z" fill="#00092B" fill-opacity="0.8"/>
<path d="M99.9886 22.098C99.0482 22.098 98.1079 21.9726 97.1676 21.7219C96.2481 21.4711 95.454 21.1054 94.7854 20.6248C94.5973 20.5203 94.545 20.3532 94.6286 20.1233C94.7331 19.8934 94.8376 19.674 94.9421 19.4651C95.0675 19.2352 95.1824 19.0158 95.2869 18.8068C95.3914 18.6397 95.5272 18.5561 95.6944 18.5561C95.7361 18.5561 95.7779 18.5665 95.8197 18.5874C95.8615 18.5874 95.9033 18.5979 95.9451 18.6188C96.5511 18.974 97.1989 19.277 97.8885 19.5278C98.5781 19.7576 99.3199 19.8725 100.114 19.8725C101.201 19.8725 102.068 19.6322 102.716 19.1516C103.363 18.6501 103.687 17.9501 103.687 17.0515C103.687 16.4873 103.541 16.038 103.248 15.7037C102.956 15.3485 102.528 15.0455 101.963 14.7947C101.42 14.5439 100.762 14.2723 99.9886 13.9797C98.902 13.5618 97.9512 13.1439 97.1362 12.726C96.3421 12.2871 95.7257 11.7438 95.2869 11.096C94.848 10.4482 94.6286 9.60193 94.6286 8.55711C94.6286 7.4287 94.8794 6.4988 95.3809 5.76743C95.9033 5.03605 96.5929 4.50319 97.4497 4.16885C98.3273 3.81361 99.2885 3.63599 100.333 3.63599C101.232 3.63599 102.11 3.76136 102.966 4.01212C103.823 4.26288 104.596 4.61812 105.286 5.07784C105.474 5.20322 105.516 5.37039 105.411 5.57936C105.307 5.78832 105.202 5.99729 105.098 6.20625C104.993 6.41522 104.889 6.63463 104.784 6.86449C104.722 7.03166 104.596 7.11525 104.408 7.11525C104.304 7.11525 104.231 7.09435 104.189 7.05256C103.583 6.69732 102.956 6.41522 102.308 6.20625C101.66 5.97639 101.002 5.86146 100.333 5.86146C99.3094 5.86146 98.5049 6.08087 97.9198 6.5197C97.3556 6.93763 97.0735 7.57497 97.0735 8.43173C97.0735 9.12131 97.2407 9.66462 97.575 10.0617C97.9094 10.4587 98.3587 10.7721 98.9229 11.002C99.4871 11.2319 100.104 11.4722 100.772 11.7229C101.504 11.9946 102.193 12.2662 102.841 12.5379C103.489 12.8095 104.053 13.1334 104.534 13.5096C105.035 13.8857 105.422 14.3454 105.693 14.8887C105.986 15.432 106.132 16.1007 106.132 16.8948C106.132 17.9814 105.871 18.9113 105.349 19.6845C104.847 20.4576 104.137 21.0532 103.217 21.4711C102.298 21.8891 101.221 22.098 99.9886 22.098Z" fill="#00092B" fill-opacity="0.8"/>
<path d="M70.1856 5.3286C70.9797 4.7226 71.6066 4.32557 72.0663 4.1375C72.526 3.94943 73.0067 3.8554 73.5082 3.8554H74.4485C74.5948 3.8554 74.6993 3.89719 74.762 3.98078C74.8455 4.06436 74.8873 4.16885 74.8873 4.29422V5.83012C74.8873 5.95549 74.8455 6.05998 74.762 6.14356C74.6784 6.22715 74.5739 6.26894 74.4485 6.26894H73.7589C73.4455 6.26894 73.132 6.31073 72.8186 6.39432C72.526 6.47791 72.1813 6.64508 71.7842 6.89584C71.3872 7.1257 70.8648 7.50183 70.217 8.02425L70.1856 5.3286Z" fill="#00092B" fill-opacity="0.8"/>
<path d="M65.9228 6.26894V21.0311C65.9228 21.4472 66.2601 21.7846 66.6762 21.7846H72.0036C72.129 21.7846 72.2335 21.7428 72.3171 21.6592C72.4007 21.5756 72.4425 21.4711 72.4425 21.3457V19.9039C72.4425 19.7785 72.4007 19.674 72.3171 19.5904C72.2335 19.5069 72.129 19.4651 72.0036 19.4651H68.3676V5.17188C68.3676 4.85843 68.2527 4.59722 68.0228 4.38826C67.8139 4.1584 67.5527 4.04347 67.2392 4.04347H63.3211C63.1958 4.04347 63.0913 4.08526 63.0077 4.16885C62.9241 4.25243 62.8823 4.35691 62.8823 4.48229V5.83012C62.8823 5.95549 62.9241 6.05998 63.0077 6.14356C63.0913 6.22715 63.1958 6.26894 63.3211 6.26894H65.9228Z" fill="#00092B" fill-opacity="0.8"/>
<path d="M46.0044 8.37265C46.0044 8.12297 46.2068 7.92057 46.4565 7.92057H49.169C49.4187 7.92057 49.6211 8.12297 49.6211 8.37265V11.0852C49.6211 11.3349 49.4187 11.5373 49.169 11.5373H46.4565C46.2068 11.5373 46.0044 11.3349 46.0044 11.0852V8.37265Z" fill="#00092B" fill-opacity="0.8"/>
<path d="M51.7308 8.37265C51.7308 8.12297 51.9332 7.92057 52.1829 7.92057H60.0191C60.2688 7.92057 60.4712 8.12297 60.4712 8.37265V11.0852C60.4712 11.3349 60.2688 11.5373 60.0191 11.5373H52.1829C51.9332 11.5373 51.7308 11.3349 51.7308 11.0852V8.37265Z" fill="#00092B" fill-opacity="0.8"/>
<path d="M51.7308 14.4005C51.7308 14.1508 51.9332 13.9484 52.1829 13.9484H60.0191C60.2688 13.9484 60.4712 14.1508 60.4712 14.4005V17.113C60.4712 17.3627 60.2688 17.5651 60.0191 17.5651H52.1829C51.9332 17.5651 51.7308 17.3627 51.7308 17.113V14.4005Z" fill="#00092B" fill-opacity="0.8"/>
<path d="M46.0044 14.4005C46.0044 14.1508 46.2068 13.9484 46.4565 13.9484H49.169C49.4187 13.9484 49.6211 14.1508 49.6211 14.4005V17.113C49.6211 17.3627 49.4187 17.5651 49.169 17.5651H46.4565C46.2068 17.5651 46.0044 17.3627 46.0044 17.113V14.4005Z" fill="#00092B" fill-opacity="0.8"/>
</svg>
