<svg width="428" height="71" viewBox="0 0 428 71" fill="none" xmlns="http://www.w3.org/2000/svg">
<path d="M88.8189 66L88.8189 52.6611L90.3145 52.6611L90.3145 66L88.8189 66ZM89.4253 66L89.4253 64.6459L96.7617 64.6459L96.7617 66L89.4253 66ZM102.95 66.2425C102.142 66.2425 101.435 66.1213 100.828 65.8787C100.222 65.6227 99.7099 65.2589 99.2923 64.7874C98.8746 64.3158 98.5647 63.7566 98.3626 63.1099C98.1605 62.4632 98.0594 61.7491 98.0594 60.9676C98.0594 60.1592 98.1605 59.4181 98.3626 58.7444C98.5782 58.0573 98.8881 57.4577 99.2923 56.9457C99.6965 56.4337 100.188 56.0429 100.768 55.7735C101.36 55.4905 102.041 55.3491 102.809 55.3491C103.456 55.3491 104.048 55.4636 104.587 55.6926C105.126 55.9082 105.591 56.2451 105.982 56.7032C106.373 57.1613 106.669 57.7474 106.871 58.4615C107.073 59.1621 107.161 59.9975 107.134 60.9676L98.9689 61.0282L98.9689 59.8762L106.204 59.8156L105.699 60.6846C105.753 59.7954 105.659 59.0543 105.416 58.4615C105.187 57.8686 104.843 57.424 104.385 57.1276C103.941 56.8312 103.408 56.6829 102.789 56.6829C102.128 56.6829 101.549 56.8514 101.051 57.1882C100.566 57.5251 100.188 58.0168 99.9188 58.6636C99.6493 59.2968 99.5146 60.0581 99.5146 60.9474C99.5146 62.2274 99.7975 63.2177 100.363 63.9183C100.943 64.6055 101.819 64.9491 102.991 64.9491C103.435 64.9491 103.826 64.9019 104.163 64.8076C104.5 64.6998 104.783 64.5516 105.012 64.3629C105.254 64.1743 105.456 63.952 105.618 63.696C105.78 63.44 105.901 63.1571 105.982 62.8472L107.296 63.1705C107.161 63.6556 106.966 64.0935 106.71 64.4842C106.467 64.8615 106.164 65.1848 105.8 65.4543C105.436 65.7103 105.019 65.9057 104.547 66.0404C104.075 66.1752 103.543 66.2425 102.95 66.2425ZM113.812 66.2425C113.084 66.2425 112.437 66.1617 111.871 66C111.319 65.8383 110.854 65.6093 110.477 65.3128C110.113 65.0164 109.837 64.6594 109.648 64.2417C109.473 63.824 109.392 63.3659 109.406 62.8674L110.74 62.6248C110.686 63.1234 110.78 63.5478 111.023 63.8981C111.279 64.2484 111.649 64.5179 112.134 64.7065C112.619 64.8817 113.205 64.9693 113.892 64.9693C114.755 64.9693 115.422 64.8211 115.893 64.5246C116.365 64.2282 116.601 63.8173 116.601 63.2918C116.601 62.8876 116.466 62.5709 116.196 62.3419C115.94 62.1128 115.583 61.9309 115.125 61.7962C114.681 61.6615 114.162 61.5402 113.569 61.4324C113.084 61.3246 112.606 61.2034 112.134 61.0686C111.663 60.9204 111.231 60.7385 110.841 60.5229C110.463 60.3074 110.16 60.0312 109.931 59.6943C109.702 59.344 109.588 58.9061 109.588 58.3806C109.588 57.7474 109.749 57.2084 110.073 56.7638C110.396 56.3192 110.861 55.9756 111.467 55.7331C112.074 55.4771 112.794 55.3491 113.63 55.3491C114.479 55.3491 115.193 55.4838 115.772 55.7533C116.365 56.0227 116.823 56.4 117.146 56.8851C117.47 57.3701 117.645 57.936 117.672 58.5827L116.318 58.8657C116.318 58.3672 116.203 57.9562 115.974 57.6328C115.745 57.296 115.422 57.0467 115.004 56.8851C114.586 56.7234 114.095 56.6425 113.529 56.6425C112.761 56.6425 112.148 56.7907 111.69 57.0872C111.245 57.3836 111.023 57.7878 111.023 58.2998C111.023 58.6905 111.151 59.0072 111.407 59.2497C111.676 59.4787 112.033 59.6606 112.478 59.7954C112.922 59.9166 113.414 60.0312 113.953 60.1389C114.492 60.2467 115.004 60.368 115.489 60.5027C115.974 60.6375 116.405 60.8126 116.783 61.0282C117.173 61.2438 117.476 61.5267 117.692 61.8771C117.921 62.2274 118.036 62.672 118.036 63.2109C118.036 63.8981 117.854 64.4707 117.49 64.9288C117.14 65.3735 116.648 65.7036 116.015 65.9192C115.381 66.1347 114.647 66.2425 113.812 66.2425ZM131.013 66.2425C130.34 66.2425 129.767 66.1078 129.296 65.8383C128.837 65.5688 128.467 65.2051 128.184 64.7469C127.901 64.2888 127.679 63.7971 127.517 63.2716L127.214 63.2716L127.335 66L125.941 66L125.941 60.8867L125.941 51.9537L127.436 51.9537L127.436 55.1672C127.436 55.5175 127.423 55.8947 127.396 56.2989C127.369 56.6897 127.328 57.0872 127.275 57.4914C127.221 57.8821 127.167 58.2661 127.113 58.6434L127.436 58.6434C127.584 58.1044 127.793 57.5857 128.063 57.0872C128.332 56.5886 128.709 56.1777 129.195 55.8543C129.68 55.5175 130.293 55.3491 131.034 55.3491C131.909 55.3491 132.657 55.5848 133.277 56.0564C133.897 56.528 134.368 57.1747 134.692 57.9966C135.029 58.8051 135.197 59.7415 135.197 60.8059C135.197 61.8434 135.035 62.7731 134.712 63.5949C134.389 64.4168 133.917 65.0636 133.297 65.5352C132.691 66.0067 131.93 66.2425 131.013 66.2425ZM130.791 64.9086C131.384 64.9086 131.896 64.7469 132.327 64.4236C132.758 64.0867 133.082 63.6152 133.297 63.0088C133.526 62.4025 133.641 61.6884 133.641 60.8665C133.641 60.0851 133.533 59.3844 133.317 58.7646C133.102 58.1314 132.779 57.6328 132.347 57.2691C131.916 56.9053 131.384 56.7234 130.751 56.7234C130.293 56.7234 129.882 56.8177 129.518 57.0063C129.154 57.1815 128.844 57.424 128.588 57.7339C128.332 58.0438 128.117 58.3806 127.941 58.7444C127.766 59.0947 127.638 59.4518 127.557 59.8156C127.477 60.1659 127.436 60.4825 127.436 60.7655L127.436 60.9676C127.436 61.3987 127.51 61.8434 127.659 62.3015C127.82 62.7596 128.049 63.184 128.346 63.5747C128.642 63.9655 128.992 64.2888 129.397 64.5448C129.814 64.7874 130.279 64.9086 130.791 64.9086ZM142.425 66.2425C141.442 66.2425 140.573 66.0269 139.818 65.5958C139.077 65.1512 138.498 64.5246 138.08 63.7162C137.676 62.8943 137.474 61.904 137.474 60.7453C137.474 59.5326 137.689 58.5288 138.121 57.7339C138.565 56.9389 139.158 56.3461 139.899 55.9554C140.64 55.5512 141.462 55.3491 142.365 55.3491C143.295 55.3491 144.13 55.5646 144.871 55.9958C145.625 56.4135 146.218 57.0333 146.649 57.8552C147.094 58.6636 147.316 59.6606 147.316 60.8463C147.316 62.032 147.101 63.0291 146.67 63.8375C146.239 64.6324 145.652 65.232 144.911 65.6362C144.17 66.0404 143.342 66.2425 142.425 66.2425ZM142.486 64.9491C143.173 64.9491 143.766 64.7806 144.265 64.4438C144.763 64.1069 145.147 63.6354 145.417 63.0291C145.686 62.4093 145.821 61.6884 145.821 60.8665C145.821 60.0177 145.679 59.2834 145.396 58.6636C145.113 58.0303 144.709 57.5453 144.184 57.2084C143.672 56.8581 143.052 56.6829 142.324 56.6829C141.651 56.6829 141.065 56.8446 140.566 57.168C140.068 57.4779 139.677 57.936 139.394 58.5423C139.111 59.1352 138.969 59.856 138.969 60.7048C138.969 62.0118 139.286 63.0493 139.919 63.8173C140.553 64.5718 141.408 64.9491 142.486 64.9491ZM150.118 66L150.118 59.4922L150.118 55.5916L151.553 55.5916L151.311 58.9465L151.614 58.9465C151.816 58.1246 152.072 57.4509 152.382 56.9255C152.705 56.3865 153.109 55.9891 153.594 55.7331C154.08 55.4771 154.639 55.3491 155.272 55.3491C156.404 55.3491 157.259 55.76 157.839 56.5819C158.432 57.3903 158.728 58.5827 158.728 60.1592L158.728 66L157.232 66L157.232 60.2602C157.232 59.0611 157.037 58.1718 156.646 57.5924C156.269 57.0131 155.703 56.7234 154.949 56.7234C154.288 56.7234 153.709 56.9389 153.21 57.3701C152.725 57.8013 152.348 58.3672 152.079 59.0678C151.809 59.7549 151.654 60.496 151.614 61.2909L151.614 66L150.118 66ZM161.921 66L161.921 59.4922L161.921 55.5916L163.356 55.5916L163.113 58.9465L163.416 58.9465C163.619 58.1246 163.875 57.4509 164.184 56.9255C164.508 56.3865 164.912 55.9891 165.397 55.7331C165.882 55.4771 166.441 55.3491 167.075 55.3491C168.206 55.3491 169.062 55.76 169.641 56.5819C170.234 57.3903 170.531 58.5827 170.531 60.1592L170.531 66L169.035 66L169.035 60.2602C169.035 59.0611 168.84 58.1718 168.449 57.5924C168.072 57.0131 167.506 56.7234 166.751 56.7234C166.091 56.7234 165.512 56.9389 165.013 57.3701C164.528 57.8013 164.151 58.3672 163.881 59.0678C163.612 59.7549 163.457 60.496 163.416 61.2909L163.416 66L161.921 66ZM178.069 66.2425C177.26 66.2425 176.553 66.1213 175.947 65.8787C175.34 65.6227 174.828 65.2589 174.411 64.7874C173.993 64.3158 173.683 63.7566 173.481 63.1099C173.279 62.4632 173.178 61.7491 173.178 60.9676C173.178 60.1592 173.279 59.4181 173.481 58.7444C173.697 58.0573 174.006 57.4577 174.411 56.9457C174.815 56.4337 175.307 56.0429 175.886 55.7735C176.479 55.4905 177.159 55.3491 177.927 55.3491C178.574 55.3491 179.167 55.4636 179.706 55.6926C180.245 55.9082 180.71 56.2451 181.1 56.7032C181.491 57.1613 181.788 57.7474 181.99 58.4615C182.192 59.1621 182.279 59.9975 182.252 60.9676L174.087 61.0282L174.087 59.8762L181.323 59.8156L180.817 60.6846C180.871 59.7954 180.777 59.0543 180.534 58.4615C180.305 57.8686 179.962 57.424 179.504 57.1276C179.059 56.8312 178.527 56.6829 177.907 56.6829C177.247 56.6829 176.668 56.8514 176.169 57.1882C175.684 57.5251 175.307 58.0168 175.037 58.6636C174.768 59.2968 174.633 60.0581 174.633 60.9474C174.633 62.2274 174.916 63.2177 175.482 63.9183C176.061 64.6055 176.937 64.9491 178.109 64.9491C178.554 64.9491 178.945 64.9019 179.281 64.8076C179.618 64.6998 179.901 64.5516 180.13 64.3629C180.373 64.1743 180.575 63.952 180.737 63.696C180.898 63.44 181.02 63.1571 181.1 62.8472L182.414 63.1705C182.279 63.6556 182.084 64.0935 181.828 64.4842C181.585 64.8615 181.282 65.1848 180.918 65.4543C180.555 65.7103 180.137 65.9057 179.665 66.0404C179.194 66.1752 178.662 66.2425 178.069 66.2425ZM188.93 66.2425C188.202 66.2425 187.556 66.1617 186.99 66C186.437 65.8383 185.973 65.6093 185.595 65.3128C185.232 65.0164 184.955 64.6594 184.767 64.2417C184.592 63.824 184.511 63.3659 184.524 62.8674L185.858 62.6248C185.804 63.1234 185.898 63.5478 186.141 63.8981C186.397 64.2484 186.768 64.5179 187.253 64.7065C187.738 64.8817 188.324 64.9693 189.011 64.9693C189.873 64.9693 190.54 64.8211 191.012 64.5246C191.483 64.2282 191.719 63.8173 191.719 63.2918C191.719 62.8876 191.584 62.5709 191.315 62.3419C191.059 62.1128 190.702 61.9309 190.244 61.7962C189.799 61.6615 189.28 61.5402 188.688 61.4324C188.202 61.3246 187.724 61.2034 187.253 61.0686C186.781 60.9204 186.35 60.7385 185.959 60.5229C185.582 60.3074 185.279 60.0312 185.05 59.6943C184.821 59.344 184.706 58.9061 184.706 58.3806C184.706 57.7474 184.868 57.2084 185.191 56.7638C185.514 56.3192 185.979 55.9756 186.586 55.7331C187.192 55.4771 187.913 55.3491 188.748 55.3491C189.597 55.3491 190.311 55.4838 190.89 55.7533C191.483 56.0227 191.941 56.4 192.265 56.8851C192.588 57.3701 192.763 57.936 192.79 58.5827L191.436 58.8657C191.436 58.3672 191.322 57.9562 191.093 57.6328C190.864 57.296 190.54 57.0467 190.122 56.8851C189.705 56.7234 189.213 56.6425 188.647 56.6425C187.879 56.6425 187.266 56.7907 186.808 57.0872C186.363 57.3836 186.141 57.7878 186.141 58.2998C186.141 58.6905 186.269 59.0072 186.525 59.2497C186.794 59.4787 187.152 59.6606 187.596 59.7954C188.041 59.9166 188.533 60.0312 189.072 60.1389C189.61 60.2467 190.122 60.368 190.608 60.5027C191.093 60.6375 191.524 60.8126 191.901 61.0282C192.292 61.2438 192.595 61.5267 192.81 61.8771C193.04 62.2274 193.154 62.672 193.154 63.2109C193.154 63.8981 192.972 64.4707 192.608 64.9288C192.258 65.3735 191.766 65.7036 191.133 65.9192C190.5 66.1347 189.765 66.2425 188.93 66.2425ZM203.444 66.2425C202.878 66.2425 202.366 66.1415 201.908 65.9394C201.45 65.7238 201.086 65.3937 200.817 64.9491C200.547 64.5044 200.412 63.952 200.412 63.2918C200.412 62.8202 200.493 62.3958 200.655 62.0185C200.83 61.6413 201.099 61.3179 201.463 61.0484C201.827 60.7655 202.312 60.5297 202.918 60.3411C203.525 60.1524 204.266 60.0042 205.142 59.8964C205.681 59.8291 206.112 59.7617 206.435 59.6943C206.758 59.6135 206.994 59.4989 207.142 59.3507C207.304 59.1891 207.385 58.9465 207.385 58.6232C207.385 58.0707 207.196 57.6059 206.819 57.2286C206.442 56.8379 205.849 56.6425 205.041 56.6425C204.65 56.6425 204.239 56.7099 203.808 56.8446C203.377 56.9794 202.999 57.2152 202.676 57.552C202.353 57.8888 202.15 58.3672 202.07 58.9869L200.675 58.4817C200.769 58.0101 200.931 57.5857 201.16 57.2084C201.389 56.8312 201.692 56.5011 202.07 56.2181C202.447 55.9352 202.885 55.7196 203.383 55.5714C203.895 55.4232 204.461 55.3491 205.081 55.3491C205.93 55.3491 206.63 55.4905 207.183 55.7735C207.749 56.0564 208.166 56.4943 208.436 57.0872C208.719 57.6665 208.86 58.4143 208.86 59.3305L208.86 61.8164C208.86 62.2206 208.867 62.672 208.881 63.1705C208.907 63.6556 208.941 64.1474 208.982 64.6459C209.022 65.1309 209.062 65.5823 209.103 66L207.708 66C207.668 65.5419 207.634 65.0973 207.607 64.6661C207.58 64.2349 207.56 63.8038 207.547 63.3726L207.304 63.3726C207.115 63.8712 206.853 64.3427 206.516 64.7874C206.179 65.2185 205.755 65.5688 205.243 65.8383C204.744 66.1078 204.145 66.2425 203.444 66.2425ZM203.767 64.9693C204.064 64.9693 204.374 64.9221 204.697 64.8278C205.02 64.72 205.344 64.5583 205.667 64.3427C205.99 64.1137 206.294 63.8173 206.577 63.4535C206.873 63.0762 207.149 62.6248 207.405 62.0994L207.405 59.9773L207.971 60.0783C207.755 60.3074 207.459 60.4825 207.082 60.6038C206.718 60.7116 206.307 60.7992 205.849 60.8665C205.391 60.9339 204.926 61.008 204.454 61.0888C203.996 61.1697 203.572 61.2909 203.181 61.4526C202.804 61.6008 202.494 61.8164 202.251 62.0994C202.022 62.3688 201.908 62.7461 201.908 63.2312C201.908 63.8105 202.076 64.2484 202.413 64.5448C202.763 64.8278 203.215 64.9693 203.767 64.9693ZM216.477 66.2425C215.56 66.2425 214.792 66.0943 214.173 65.7979C213.553 65.5015 213.054 65.0973 212.677 64.5853C212.3 64.0733 212.024 63.5006 211.848 62.8674C211.673 62.2341 211.586 61.5806 211.586 60.9069C211.586 60.1524 211.68 59.4451 211.869 58.7848C212.071 58.1112 212.367 57.5183 212.758 57.0063C213.162 56.4808 213.661 56.0766 214.254 55.7937C214.846 55.4973 215.547 55.3491 216.355 55.3491C217.123 55.3491 217.804 55.4905 218.397 55.7735C219.003 56.0429 219.495 56.4269 219.872 56.9255C220.249 57.4105 220.485 57.9966 220.579 58.6838L219.144 59.0476C219.118 58.6973 219.003 58.3402 218.801 57.9764C218.599 57.5992 218.296 57.2893 217.891 57.0467C217.501 56.8042 216.989 56.6829 216.355 56.6829C215.803 56.6829 215.325 56.7907 214.92 57.0063C214.516 57.2219 214.179 57.5251 213.91 57.9158C213.64 58.2931 213.438 58.7377 213.304 59.2497C213.169 59.7617 213.102 60.3141 213.102 60.9069C213.102 61.6884 213.216 62.3823 213.445 62.9886C213.688 63.5949 214.058 64.0733 214.557 64.4236C215.055 64.7739 215.702 64.9491 216.497 64.9491C217.063 64.9491 217.555 64.8547 217.972 64.6661C218.39 64.464 218.72 64.1811 218.963 63.8173C219.219 63.4535 219.387 63.0021 219.468 62.4632L220.862 62.7865C220.755 63.3928 220.566 63.9116 220.296 64.3427C220.04 64.7739 219.717 65.1309 219.326 65.4139C218.949 65.6968 218.518 65.9057 218.033 66.0404C217.561 66.1752 217.043 66.2425 216.477 66.2425ZM226.156 66.2021C225.254 66.2021 224.58 65.9528 224.135 65.4543C223.704 64.9558 223.489 64.2147 223.489 63.2312L223.489 56.8851L221.912 56.8851L221.912 55.5916L222.862 55.5916C223.172 55.5916 223.394 55.5377 223.529 55.4299C223.677 55.3086 223.765 55.1133 223.792 54.8438L223.974 53.2472L224.924 53.2472L224.924 55.5916L228.036 55.5916L228.036 56.9053L224.924 56.9053L224.924 63.2312C224.924 63.7836 225.052 64.1878 225.308 64.4438C225.564 64.6863 225.927 64.8076 226.399 64.8076C226.655 64.8076 226.924 64.7739 227.207 64.7065C227.49 64.6257 227.787 64.4707 228.097 64.2417L228.097 65.7979C227.719 65.9326 227.369 66.0337 227.046 66.1011C226.722 66.1684 226.426 66.2021 226.156 66.2021ZM230.487 66L230.487 55.5916L231.983 55.5916L231.983 66L230.487 66ZM231.235 53.6918C230.858 53.6918 230.575 53.6177 230.386 53.4695C230.197 53.3078 230.103 53.072 230.103 52.7621C230.103 52.4657 230.197 52.2366 230.386 52.0749C230.575 51.9133 230.851 51.8324 231.215 51.8324C231.592 51.8324 231.875 51.9133 232.064 52.0749C232.266 52.2232 232.367 52.4522 232.367 52.7621C232.367 53.072 232.266 53.3078 232.064 53.4695C231.875 53.6177 231.599 53.6918 231.235 53.6918ZM239.748 66.2425C238.764 66.2425 237.895 66.0269 237.141 65.5958C236.4 65.1512 235.82 64.5246 235.403 63.7162C234.998 62.8943 234.796 61.904 234.796 60.7453C234.796 59.5326 235.012 58.5288 235.443 57.7339C235.888 56.9389 236.48 56.3461 237.222 55.9554C237.963 55.5512 238.784 55.3491 239.687 55.3491C240.617 55.3491 241.452 55.5646 242.193 55.9958C242.948 56.4135 243.541 57.0333 243.972 57.8552C244.416 58.6636 244.639 59.6606 244.639 60.8463C244.639 62.032 244.423 63.0291 243.992 63.8375C243.561 64.6324 242.975 65.232 242.234 65.6362C241.493 66.0404 240.664 66.2425 239.748 66.2425ZM239.808 64.9491C240.496 64.9491 241.088 64.7806 241.587 64.4438C242.086 64.1069 242.47 63.6354 242.739 63.0291C243.008 62.4093 243.143 61.6884 243.143 60.8665C243.143 60.0177 243.002 59.2834 242.719 58.6636C242.436 58.0303 242.032 57.5453 241.506 57.2084C240.994 56.8581 240.374 56.6829 239.647 56.6829C238.973 56.6829 238.387 56.8446 237.888 57.168C237.39 57.4779 236.999 57.936 236.716 58.5423C236.433 59.1352 236.292 59.856 236.292 60.7048C236.292 62.0118 236.608 63.0493 237.242 63.8173C237.875 64.5718 238.731 64.9491 239.808 64.9491ZM247.441 66L247.441 59.4922L247.441 55.5916L248.876 55.5916L248.633 58.9465L248.936 58.9465C249.138 58.1246 249.394 57.4509 249.704 56.9255C250.028 56.3865 250.432 55.9891 250.917 55.7331C251.402 55.4771 251.961 55.3491 252.594 55.3491C253.726 55.3491 254.582 55.76 255.161 56.5819C255.754 57.3903 256.05 58.5827 256.05 60.1592L256.05 66L254.555 66L254.555 60.2602C254.555 59.0611 254.359 58.1718 253.969 57.5924C253.591 57.0131 253.025 56.7234 252.271 56.7234C251.611 56.7234 251.031 56.9389 250.533 57.3701C250.048 57.8013 249.671 58.3672 249.401 59.0678C249.132 59.7549 248.977 60.496 248.936 61.2909L248.936 66L247.441 66ZM263.002 66.2425C262.275 66.2425 261.628 66.1617 261.062 66C260.51 65.8383 260.045 65.6093 259.668 65.3128C259.304 65.0164 259.028 64.6594 258.839 64.2417C258.664 63.824 258.583 63.3659 258.597 62.8674L259.93 62.6248C259.877 63.1234 259.971 63.5478 260.213 63.8981C260.469 64.2484 260.84 64.5179 261.325 64.7065C261.81 64.8817 262.396 64.9693 263.083 64.9693C263.946 64.9693 264.613 64.8211 265.084 64.5246C265.556 64.2282 265.791 63.8173 265.791 63.2918C265.791 62.8876 265.657 62.5709 265.387 62.3419C265.131 62.1128 264.774 61.9309 264.316 61.7962C263.871 61.6615 263.353 61.5402 262.76 61.4324C262.275 61.3246 261.797 61.2034 261.325 61.0686C260.853 60.9204 260.422 60.7385 260.031 60.5229C259.654 60.3074 259.351 60.0312 259.122 59.6943C258.893 59.344 258.778 58.9061 258.778 58.3806C258.778 57.7474 258.94 57.2084 259.263 56.7638C259.587 56.3192 260.052 55.9756 260.658 55.7331C261.264 55.4771 261.985 55.3491 262.821 55.3491C263.669 55.3491 264.383 55.4838 264.963 55.7533C265.556 56.0227 266.014 56.4 266.337 56.8851C266.661 57.3701 266.836 57.936 266.863 58.5827L265.509 58.8657C265.509 58.3672 265.394 57.9562 265.165 57.6328C264.936 57.296 264.613 57.0467 264.195 56.8851C263.777 56.7234 263.285 56.6425 262.719 56.6425C261.951 56.6425 261.338 56.7907 260.88 57.0872C260.436 57.3836 260.213 57.7878 260.213 58.2998C260.213 58.6905 260.341 59.0072 260.597 59.2497C260.867 59.4787 261.224 59.6606 261.669 59.7954C262.113 59.9166 262.605 60.0312 263.144 60.1389C263.683 60.2467 264.195 60.368 264.68 60.5027C265.165 60.6375 265.596 60.8126 265.973 61.0282C266.364 61.2438 266.667 61.5267 266.883 61.8771C267.112 62.2274 267.226 62.672 267.226 63.2109C267.226 63.8981 267.045 64.4707 266.681 64.9288C266.33 65.3735 265.839 65.7036 265.205 65.9192C264.572 66.1347 263.838 66.2425 263.002 66.2425ZM268.145 68.7891C268.388 68.1693 268.556 67.6168 268.65 67.1318C268.758 66.6467 268.819 66.2021 268.832 65.7979C268.859 65.3802 268.873 64.9962 268.873 64.6459L270.328 64.6459C270.328 65.2657 270.281 65.8316 270.186 66.3436C270.106 66.8556 269.991 67.3137 269.843 67.7179C269.708 68.1221 269.567 68.4792 269.418 68.7891L268.145 68.7891ZM280.141 66.2425C279.575 66.2425 279.063 66.1415 278.605 65.9394C278.147 65.7238 277.783 65.3937 277.514 64.9491C277.244 64.5044 277.11 63.952 277.11 63.2918C277.11 62.8202 277.191 62.3958 277.352 62.0185C277.527 61.6413 277.797 61.3179 278.161 61.0484C278.524 60.7655 279.009 60.5297 279.616 60.3411C280.222 60.1524 280.963 60.0042 281.839 59.8964C282.378 59.8291 282.809 59.7617 283.132 59.6943C283.456 59.6135 283.692 59.4989 283.84 59.3507C284.001 59.1891 284.082 58.9465 284.082 58.6232C284.082 58.0707 283.894 57.6059 283.516 57.2286C283.139 56.8379 282.546 56.6425 281.738 56.6425C281.347 56.6425 280.936 56.7099 280.505 56.8446C280.074 56.9794 279.697 57.2152 279.373 57.552C279.05 57.8888 278.848 58.3672 278.767 58.9869L277.372 58.4817C277.467 58.0101 277.628 57.5857 277.857 57.2084C278.087 56.8312 278.39 56.5011 278.767 56.2181C279.144 55.9352 279.582 55.7196 280.081 55.5714C280.593 55.4232 281.159 55.3491 281.778 55.3491C282.627 55.3491 283.328 55.4905 283.88 55.7735C284.446 56.0564 284.864 56.4943 285.133 57.0872C285.416 57.6665 285.558 58.4143 285.558 59.3305L285.558 61.8164C285.558 62.2206 285.564 62.672 285.578 63.1705C285.605 63.6556 285.639 64.1474 285.679 64.6459C285.719 65.1309 285.76 65.5823 285.8 66L284.406 66C284.365 65.5419 284.332 65.0973 284.305 64.6661C284.278 64.2349 284.257 63.8038 284.244 63.3726L284.001 63.3726C283.813 63.8712 283.55 64.3427 283.213 64.7874C282.876 65.2185 282.452 65.5688 281.94 65.8383C281.441 66.1078 280.842 66.2425 280.141 66.2425ZM280.465 64.9693C280.761 64.9693 281.071 64.9221 281.394 64.8278C281.718 64.72 282.041 64.5583 282.364 64.3427C282.688 64.1137 282.991 63.8173 283.274 63.4535C283.57 63.0762 283.847 62.6248 284.103 62.0994L284.103 59.9773L284.668 60.0783C284.453 60.3074 284.156 60.4825 283.779 60.6038C283.415 60.7116 283.004 60.7992 282.546 60.8665C282.088 60.9339 281.623 61.008 281.152 61.0888C280.694 61.1697 280.269 61.2909 279.879 61.4526C279.501 61.6008 279.191 61.8164 278.949 62.0994C278.72 62.3688 278.605 62.7461 278.605 63.2312C278.605 63.8105 278.774 64.2484 279.111 64.5448C279.461 64.8278 279.912 64.9693 280.465 64.9693ZM292.123 66.2425C290.991 66.2425 290.129 65.8518 289.536 65.0703C288.957 64.2754 288.667 63.0897 288.667 61.5133L288.667 55.5916L290.183 55.5916L290.183 61.4122C290.183 62.5844 290.365 63.4602 290.729 64.0396C291.092 64.6055 291.672 64.8884 292.467 64.8884C292.898 64.8884 293.289 64.7806 293.639 64.5651C293.989 64.3495 294.299 64.0531 294.569 63.6758C294.838 63.2851 295.06 62.8202 295.236 62.2813C295.411 61.7423 295.539 61.1495 295.62 60.5027L295.62 55.5916L297.095 55.5916L297.095 61.6143L297.095 66L295.7 66L295.923 62.6248L295.62 62.6248C295.471 63.4602 295.229 64.1474 294.892 64.6863C294.569 65.2118 294.171 65.6025 293.7 65.8585C293.228 66.1145 292.702 66.2425 292.123 66.2425ZM310.796 66.2425C310.123 66.2425 309.55 66.1078 309.078 65.8383C308.62 65.5688 308.25 65.2051 307.967 64.7469C307.684 64.2888 307.462 63.7971 307.3 63.2716L306.997 63.2716L307.118 66L305.724 66L305.724 60.8867L305.724 51.9537L307.219 51.9537L307.219 55.1672C307.219 55.5175 307.206 55.8947 307.179 56.2989C307.152 56.6897 307.111 57.0872 307.057 57.4914C307.004 57.8821 306.95 58.2661 306.896 58.6434L307.219 58.6434C307.367 58.1044 307.576 57.5857 307.846 57.0872C308.115 56.5886 308.492 56.1777 308.977 55.8543C309.462 55.5175 310.076 55.3491 310.817 55.3491C311.692 55.3491 312.44 55.5848 313.06 56.0564C313.68 56.528 314.151 57.1747 314.475 57.9966C314.812 58.8051 314.98 59.7415 314.98 60.8059C314.98 61.8434 314.818 62.7731 314.495 63.5949C314.172 64.4168 313.7 65.0636 313.08 65.5352C312.474 66.0067 311.713 66.2425 310.796 66.2425ZM310.574 64.9086C311.167 64.9086 311.679 64.7469 312.11 64.4236C312.541 64.0867 312.865 63.6152 313.08 63.0088C313.309 62.4025 313.424 61.6884 313.424 60.8665C313.424 60.0851 313.316 59.3844 313.1 58.7646C312.885 58.1314 312.561 57.6328 312.13 57.2691C311.699 56.9053 311.167 56.7234 310.534 56.7234C310.076 56.7234 309.665 56.8177 309.301 57.0063C308.937 57.1815 308.627 57.424 308.371 57.7339C308.115 58.0438 307.9 58.3806 307.724 58.7444C307.549 59.0947 307.421 59.4518 307.34 59.8156C307.26 60.1659 307.219 60.4825 307.219 60.7655L307.219 60.9676C307.219 61.3987 307.293 61.8434 307.441 62.3015C307.603 62.7596 307.832 63.184 308.129 63.5747C308.425 63.9655 308.775 64.2888 309.18 64.5448C309.597 64.7874 310.062 64.9086 310.574 64.9086ZM322.208 66.2425C321.225 66.2425 320.356 66.0269 319.601 65.5958C318.86 65.1512 318.281 64.5246 317.863 63.7162C317.459 62.8943 317.257 61.904 317.257 60.7453C317.257 59.5326 317.472 58.5288 317.904 57.7339C318.348 56.9389 318.941 56.3461 319.682 55.9554C320.423 55.5512 321.245 55.3491 322.148 55.3491C323.077 55.3491 323.913 55.5646 324.654 55.9958C325.408 56.4135 326.001 57.0333 326.432 57.8552C326.877 58.6636 327.099 59.6606 327.099 60.8463C327.099 62.032 326.884 63.0291 326.453 63.8375C326.021 64.6324 325.435 65.232 324.694 65.6362C323.953 66.0404 323.125 66.2425 322.208 66.2425ZM322.269 64.9491C322.956 64.9491 323.549 64.7806 324.048 64.4438C324.546 64.1069 324.93 63.6354 325.2 63.0291C325.469 62.4093 325.604 61.6884 325.604 60.8665C325.604 60.0177 325.462 59.2834 325.179 58.6636C324.896 58.0303 324.492 57.5453 323.967 57.2084C323.455 56.8581 322.835 56.6829 322.107 56.6829C321.434 56.6829 320.848 56.8446 320.349 57.168C319.85 57.4779 319.46 57.936 319.177 58.5423C318.894 59.1352 318.752 59.856 318.752 60.7048C318.752 62.0118 319.069 63.0493 319.702 63.8173C320.336 64.5718 321.191 64.9491 322.269 64.9491ZM329.901 66L329.901 59.4922L329.901 55.5916L331.336 55.5916L331.094 58.9465L331.397 58.9465C331.599 58.1246 331.855 57.4509 332.165 56.9255C332.488 56.3865 332.892 55.9891 333.377 55.7331C333.862 55.4771 334.422 55.3491 335.055 55.3491C336.187 55.3491 337.042 55.76 337.622 56.5819C338.214 57.3903 338.511 58.5827 338.511 60.1592L338.511 66L337.015 66L337.015 60.2602C337.015 59.0611 336.82 58.1718 336.429 57.5924C336.052 57.0131 335.486 56.7234 334.731 56.7234C334.071 56.7234 333.492 56.9389 332.993 57.3701C332.508 57.8013 332.131 58.3672 331.862 59.0678C331.592 59.7549 331.437 60.496 331.397 61.2909L331.397 66L329.901 66ZM346.974 66L346.974 59.6337L346.974 55.5916L348.368 55.5916L348.166 58.9465L348.469 58.9465C348.644 58.1516 348.88 57.4914 349.176 56.9659C349.473 56.4269 349.837 56.0227 350.268 55.7533C350.712 55.4838 351.211 55.3491 351.763 55.3491C352.451 55.3491 353.01 55.5242 353.441 55.8745C353.872 56.2114 354.189 56.6493 354.391 57.1882C354.593 57.7272 354.687 58.2931 354.674 58.8859L354.977 58.8859C355.112 58.1448 355.327 57.5116 355.624 56.9861C355.92 56.4472 356.297 56.0429 356.755 55.7735C357.214 55.4905 357.739 55.3491 358.332 55.3491C358.844 55.3491 359.295 55.4568 359.686 55.6724C360.09 55.888 360.427 56.1979 360.696 56.6021C360.979 57.0063 361.188 57.5116 361.323 58.1179C361.458 58.7242 361.525 59.4181 361.525 60.1996L361.525 66L360.05 66L360.05 60.4017C360.05 59.5798 359.969 58.8994 359.807 58.3604C359.659 57.8215 359.43 57.4173 359.12 57.1478C358.824 56.8783 358.446 56.7436 357.988 56.7436C357.463 56.7436 356.991 56.9255 356.574 57.2893C356.156 57.6396 355.806 58.1314 355.523 58.7646C355.253 59.3979 355.071 60.1255 354.977 60.9474L354.977 66L353.522 66L353.522 60.6038C353.522 59.7415 353.448 59.0274 353.299 58.4615C353.151 57.8821 352.922 57.4509 352.612 57.168C352.302 56.8851 351.918 56.7436 351.46 56.7436C350.894 56.7436 350.403 56.9389 349.985 57.3297C349.567 57.7069 349.23 58.2257 348.974 58.8859C348.718 59.5326 348.55 60.2535 348.469 61.0484L348.469 66L346.974 66ZM369.123 66.2425C368.139 66.2425 367.27 66.0269 366.516 65.5958C365.775 65.1512 365.195 64.5246 364.778 63.7162C364.373 62.8943 364.171 61.904 364.171 60.7453C364.171 59.5326 364.387 58.5288 364.818 57.7339C365.263 56.9389 365.855 56.3461 366.597 55.9554C367.338 55.5512 368.159 55.3491 369.062 55.3491C369.992 55.3491 370.827 55.5646 371.568 55.9958C372.323 56.4135 372.916 57.0333 373.347 57.8552C373.791 58.6636 374.014 59.6606 374.014 60.8463C374.014 62.032 373.798 63.0291 373.367 63.8375C372.936 64.6324 372.35 65.232 371.609 65.6362C370.868 66.0404 370.039 66.2425 369.123 66.2425ZM369.183 64.9491C369.871 64.9491 370.463 64.7806 370.962 64.4438C371.461 64.1069 371.845 63.6354 372.114 63.0291C372.383 62.4093 372.518 61.6884 372.518 60.8665C372.518 60.0177 372.377 59.2834 372.094 58.6636C371.811 58.0303 371.407 57.5453 370.881 57.2084C370.369 56.8581 369.749 56.6829 369.022 56.6829C368.348 56.6829 367.762 56.8446 367.263 57.168C366.765 57.4779 366.374 57.936 366.091 58.5423C365.808 59.1352 365.667 59.856 365.667 60.7048C365.667 62.0118 365.983 63.0493 366.617 63.8173C367.25 64.5718 368.106 64.9491 369.183 64.9491ZM376.816 66L376.816 59.6337L376.816 55.5916L378.21 55.5916L378.008 58.9465L378.311 58.9465C378.486 58.1516 378.722 57.4914 379.019 56.9659C379.315 56.4269 379.679 56.0227 380.11 55.7533C380.555 55.4838 381.053 55.3491 381.606 55.3491C382.293 55.3491 382.852 55.5242 383.283 55.8745C383.714 56.2114 384.031 56.6493 384.233 57.1882C384.435 57.7272 384.529 58.2931 384.516 58.8859L384.819 58.8859C384.954 58.1448 385.169 57.5116 385.466 56.9861C385.762 56.4472 386.139 56.0429 386.598 55.7735C387.056 55.4905 387.581 55.3491 388.174 55.3491C388.686 55.3491 389.137 55.4568 389.528 55.6724C389.932 55.888 390.269 56.1979 390.539 56.6021C390.822 57.0063 391.03 57.5116 391.165 58.1179C391.3 58.7242 391.367 59.4181 391.367 60.1996L391.367 66L389.892 66L389.892 60.4017C389.892 59.5798 389.811 58.8994 389.649 58.3604C389.501 57.8215 389.272 57.4173 388.962 57.1478C388.666 56.8783 388.288 56.7436 387.83 56.7436C387.305 56.7436 386.833 56.9255 386.416 57.2893C385.998 57.6396 385.648 58.1314 385.365 58.7646C385.095 59.3979 384.913 60.1255 384.819 60.9474L384.819 66L383.364 66L383.364 60.6038C383.364 59.7415 383.29 59.0274 383.142 58.4615C382.993 57.8821 382.764 57.4509 382.454 57.168C382.144 56.8851 381.76 56.7436 381.302 56.7436C380.736 56.7436 380.245 56.9389 379.827 57.3297C379.409 57.7069 379.072 58.2257 378.816 58.8859C378.56 59.5326 378.392 60.2535 378.311 61.0484L378.311 66L376.816 66ZM398.904 66.2425C398.096 66.2425 397.389 66.1213 396.782 65.8787C396.176 65.6227 395.664 65.2589 395.246 64.7874C394.829 64.3158 394.519 63.7566 394.317 63.1099C394.114 62.4632 394.013 61.7491 394.013 60.9676C394.013 60.1592 394.114 59.4181 394.317 58.7444C394.532 58.0573 394.842 57.4577 395.246 56.9457C395.65 56.4337 396.142 56.0429 396.722 55.7735C397.314 55.4905 397.995 55.3491 398.763 55.3491C399.41 55.3491 400.002 55.4636 400.541 55.6926C401.08 55.9082 401.545 56.2451 401.936 56.7032C402.327 57.1613 402.623 57.7474 402.825 58.4615C403.027 59.1621 403.115 59.9975 403.088 60.9676L394.923 61.0282L394.923 59.8762L402.158 59.8156L401.653 60.6846C401.707 59.7954 401.613 59.0543 401.37 58.4615C401.141 57.8686 400.797 57.424 400.339 57.1276C399.895 56.8312 399.362 56.6829 398.743 56.6829C398.082 56.6829 397.503 56.8514 397.005 57.1882C396.519 57.5251 396.142 58.0168 395.873 58.6636C395.603 59.2968 395.469 60.0581 395.469 60.9474C395.469 62.2274 395.751 63.2177 396.317 63.9183C396.897 64.6055 397.773 64.9491 398.945 64.9491C399.389 64.9491 399.78 64.9019 400.117 64.8076C400.454 64.6998 400.737 64.5516 400.966 64.3629C401.208 64.1743 401.41 63.952 401.572 63.696C401.734 63.44 401.855 63.1571 401.936 62.8472L403.25 63.1705C403.115 63.6556 402.919 64.0935 402.663 64.4842C402.421 64.8615 402.118 65.1848 401.754 65.4543C401.39 65.7103 400.973 65.9057 400.501 66.0404C400.029 66.1752 399.497 66.2425 398.904 66.2425ZM405.849 66L405.849 59.4922L405.849 55.5916L407.283 55.5916L407.041 58.9465L407.344 58.9465C407.546 58.1246 407.802 57.4509 408.112 56.9255C408.435 56.3865 408.84 55.9891 409.325 55.7331C409.81 55.4771 410.369 55.3491 411.002 55.3491C412.134 55.3491 412.99 55.76 413.569 56.5819C414.162 57.3903 414.458 58.5827 414.458 60.1592L414.458 66L412.963 66L412.963 60.2602C412.963 59.0611 412.767 58.1718 412.377 57.5924C411.999 57.0131 411.433 56.7234 410.679 56.7234C410.019 56.7234 409.439 56.9389 408.941 57.3701C408.456 57.8013 408.078 58.3672 407.809 59.0678C407.539 59.7549 407.385 60.496 407.344 61.2909L407.344 66L405.849 66ZM420.663 66.2021C419.76 66.2021 419.087 65.9528 418.642 65.4543C418.211 64.9558 417.995 64.2147 417.995 63.2312L417.995 56.8851L416.419 56.8851L416.419 55.5916L417.369 55.5916C417.679 55.5916 417.901 55.5377 418.036 55.4299C418.184 55.3086 418.271 55.1133 418.298 54.8438L418.48 53.2472L419.43 53.2472L419.43 55.5916L422.543 55.5916L422.543 56.9053L419.43 56.9053L419.43 63.2312C419.43 63.7836 419.558 64.1878 419.814 64.4438C420.07 64.6863 420.434 64.8076 420.905 64.8076C421.161 64.8076 421.431 64.7739 421.714 64.7065C421.997 64.6257 422.293 64.4707 422.603 64.2417L422.603 65.7979C422.226 65.9326 421.876 66.0337 421.552 66.1011C421.229 66.1684 420.932 66.2021 420.663 66.2021ZM425.722 66.2223C425.358 66.2223 425.082 66.1415 424.893 65.9798C424.704 65.8181 424.61 65.5621 424.61 65.2118C424.61 64.848 424.704 64.5853 424.893 64.4236C425.082 64.2619 425.358 64.1811 425.722 64.1811C426.099 64.1811 426.382 64.2619 426.57 64.4236C426.759 64.5853 426.853 64.848 426.853 65.2118C426.853 65.8855 426.476 66.2223 425.722 66.2223Z" fill="white"/>
<path d="M105.305 34.4492H102.636C102.381 34.4492 102.141 34.322 101.915 34.0678L91.8729 21.3983H90.4746V33.8983C90.4746 34.0678 90.404 34.209 90.2627 34.322C90.1497 34.4068 90.0085 34.4492 89.839 34.4492H87.6356C87.4661 34.4492 87.3107 34.4068 87.1695 34.322C87.0565 34.209 87 34.0678 87 33.8983V5.59322C87 5.42373 87.0565 5.28249 87.1695 5.16949C87.2825 5.0565 87.4237 5 87.5932 5H89.8814C90.0508 5 90.1921 5.0565 90.3051 5.16949C90.4181 5.28249 90.4746 5.42373 90.4746 5.59322V18.2203H91.7034L101.958 5.38136C102.184 5.12712 102.438 5 102.72 5H105.39C105.588 5 105.729 5.0565 105.814 5.16949C105.927 5.28249 105.983 5.40961 105.983 5.55085C105.983 5.72034 105.927 5.86158 105.814 5.97458L94.839 19.5763L105.771 33.3898C105.884 33.5028 105.941 33.6441 105.941 33.8136C105.941 34.0113 105.87 34.1667 105.729 34.2797C105.616 34.3927 105.475 34.4492 105.305 34.4492Z" fill="white" fill-opacity="0.8"/>
<path d="M116.596 35C115.156 35 113.87 34.7316 112.741 34.1949C111.639 33.6299 110.763 32.839 110.113 31.822C109.492 30.8051 109.181 29.6328 109.181 28.3051C109.181 26.4407 109.817 24.9011 111.088 23.6864C112.359 22.4717 114.111 21.709 116.342 21.3983C117.02 21.2853 117.656 21.2006 118.249 21.1441C118.87 21.0593 119.478 20.9746 120.071 20.8898C120.664 20.8051 121.257 20.7203 121.851 20.6356C122.67 20.4943 123.263 20.2119 123.63 19.7881C123.998 19.3644 124.181 18.7429 124.181 17.9237V17.5847C124.181 16.2006 123.644 15.0989 122.571 14.2797C121.498 13.4605 120.184 13.0508 118.63 13.0508C117.359 13.0508 116.257 13.3051 115.325 13.8136C114.421 14.322 113.715 15 113.207 15.8475C112.981 16.2147 112.698 16.3983 112.359 16.3983C112.19 16.3983 112.006 16.3277 111.808 16.1864L110.664 15.4237C110.41 15.1977 110.283 14.9576 110.283 14.7034C110.283 14.5904 110.325 14.4492 110.41 14.2797C111.201 12.952 112.303 11.8927 113.715 11.1017C115.156 10.3107 116.822 9.91525 118.715 9.91525C120.438 9.91525 121.95 10.2401 123.249 10.8898C124.548 11.5113 125.565 12.4011 126.3 13.5593C127.034 14.6893 127.402 16.0311 127.402 17.5847V33.8559C127.402 34.0254 127.345 34.1667 127.232 34.2797C127.119 34.3927 126.978 34.4492 126.808 34.4492H125.029C124.633 34.4492 124.435 34.2514 124.435 33.8559V30.9322C123.56 32.2034 122.444 33.2062 121.088 33.9407C119.732 34.6469 118.235 35 116.596 35ZM116.935 32.0339C118.404 32.0339 119.69 31.6525 120.791 30.8898C121.893 30.1271 122.755 29.1949 123.376 28.0932C123.998 26.9633 124.308 25.8898 124.308 24.8729V23.1356C123.461 23.2203 122.67 23.3192 121.935 23.4322C121.201 23.5169 120.41 23.6299 119.563 23.7712C118.743 23.8842 117.755 24.0254 116.596 24.1949C113.772 24.6186 112.359 25.9463 112.359 28.178C112.359 29.3362 112.783 30.2684 113.63 30.9746C114.478 31.6808 115.58 32.0339 116.935 32.0339Z" fill="white" fill-opacity="0.8"/>
<path d="M138.998 34.4492C138.575 34.4492 138.208 34.3079 137.897 34.0254C137.614 33.7147 137.473 33.3475 137.473 32.9237V13.6017H133.066C132.897 13.6017 132.756 13.5452 132.643 13.4322C132.53 13.3192 132.473 13.178 132.473 13.0085V11.0593C132.473 10.8898 132.53 10.7486 132.643 10.6356C132.756 10.5226 132.897 10.4661 133.066 10.4661H139.253C139.676 10.4661 140.03 10.6215 140.312 10.9322C140.623 11.2147 140.778 11.5678 140.778 11.9915V31.3136H145.143C145.312 31.3136 145.453 31.3701 145.566 31.483C145.679 31.596 145.736 31.7373 145.736 31.9068V33.8559C145.736 34.0254 145.679 34.1667 145.566 34.2797C145.453 34.3927 145.312 34.4492 145.143 34.4492H138.998Z" fill="white" fill-opacity="0.8"/>
<path d="M200.83 35C199.135 35 197.582 34.5904 196.169 33.7712C194.785 32.9237 193.683 31.8079 192.864 30.4237C192.045 29.0113 191.635 27.4576 191.635 25.7627V19.1525C191.635 17.4294 192.045 15.8757 192.864 14.4915C193.683 13.1073 194.785 12.0056 196.169 11.1864C197.582 10.339 199.135 9.91525 200.83 9.91525C202.525 9.91525 204.065 10.339 205.449 11.1864C206.833 12.0056 207.935 13.1073 208.754 14.4915C209.602 15.8757 210.025 17.4294 210.025 19.1525V25.7627C210.025 27.4576 209.602 29.0113 208.754 30.4237C207.935 31.8079 206.833 32.9237 205.449 33.7712C204.065 34.5904 202.525 35 200.83 35ZM200.83 31.8644C201.932 31.8644 202.921 31.6102 203.796 31.1017C204.7 30.565 205.407 29.8446 205.915 28.9407C206.452 28.0367 206.72 27.048 206.72 25.9746V18.9407C206.72 17.839 206.452 16.8503 205.915 15.9746C205.407 15.0706 204.7 14.3644 203.796 13.8559C202.921 13.3192 201.932 13.0508 200.83 13.0508C199.729 13.0508 198.726 13.3192 197.822 13.8559C196.946 14.3644 196.24 15.0706 195.703 15.9746C195.195 16.8503 194.94 17.839 194.94 18.9407V25.9746C194.94 27.048 195.195 28.0367 195.703 28.9407C196.24 29.8446 196.946 30.565 197.822 31.1017C198.726 31.6102 199.729 31.8644 200.83 31.8644Z" fill="white" fill-opacity="0.8"/>
<path d="M222.168 34.8729C220.897 34.8729 219.626 34.7034 218.354 34.3644C217.112 34.0254 216.038 33.5311 215.134 32.8814C214.88 32.7401 214.809 32.5141 214.922 32.2034C215.064 31.8926 215.205 31.596 215.346 31.3136C215.516 31.0028 215.671 30.7062 215.812 30.4237C215.953 30.1977 216.137 30.0847 216.363 30.0847C216.419 30.0847 216.476 30.0989 216.532 30.1271C216.589 30.1271 216.645 30.1412 216.702 30.1695C217.521 30.6497 218.397 31.0593 219.329 31.3983C220.261 31.709 221.264 31.8644 222.338 31.8644C223.806 31.8644 224.979 31.5395 225.854 30.8898C226.73 30.2119 227.168 29.2655 227.168 28.0508C227.168 27.2881 226.97 26.6808 226.575 26.2288C226.179 25.7486 225.6 25.339 224.838 25C224.103 24.661 223.213 24.2938 222.168 23.8983C220.699 23.3333 219.414 22.7684 218.312 22.2034C217.239 21.6102 216.405 20.8757 215.812 20C215.219 19.1243 214.922 17.9802 214.922 16.5678C214.922 15.0424 215.261 13.7853 215.939 12.7966C216.645 11.8079 217.578 11.0876 218.736 10.6356C219.922 10.1554 221.222 9.91525 222.634 9.91525C223.849 9.91525 225.035 10.0847 226.193 10.4237C227.352 10.7627 228.397 11.2429 229.329 11.8644C229.583 12.0339 229.64 12.2599 229.499 12.5424C229.357 12.8249 229.216 13.1073 229.075 13.3898C228.934 13.6723 228.792 13.9689 228.651 14.2797C228.566 14.5056 228.397 14.6186 228.143 14.6186C228.001 14.6186 227.903 14.5904 227.846 14.5339C227.027 14.0537 226.179 13.6723 225.304 13.3898C224.428 13.0791 223.538 12.9237 222.634 12.9237C221.25 12.9237 220.162 13.2203 219.371 13.8136C218.609 14.3785 218.227 15.2401 218.227 16.3983C218.227 17.3305 218.453 18.065 218.905 18.6017C219.357 19.1384 219.965 19.5621 220.727 19.8729C221.49 20.1836 222.323 20.5085 223.227 20.8475C224.216 21.2147 225.148 21.5819 226.024 21.9491C226.9 22.3164 227.662 22.7542 228.312 23.2627C228.99 23.7712 229.513 24.3927 229.88 25.1271C230.275 25.8616 230.473 26.7655 230.473 27.839C230.473 29.3079 230.12 30.565 229.414 31.6102C228.736 32.6554 227.775 33.4604 226.532 34.0254C225.29 34.5904 223.835 34.8729 222.168 34.8729Z" fill="white" fill-opacity="0.8"/>
<path d="M181.879 12.2034C182.953 11.3842 183.8 10.8475 184.422 10.5932C185.043 10.339 185.693 10.2119 186.371 10.2119H187.642C187.84 10.2119 187.981 10.2684 188.066 10.3814C188.179 10.4943 188.235 10.6356 188.235 10.8051V12.8814C188.235 13.0508 188.179 13.1921 188.066 13.3051C187.953 13.4181 187.812 13.4746 187.642 13.4746H186.71C186.286 13.4746 185.862 13.5311 185.439 13.6441C185.043 13.7571 184.577 13.983 184.04 14.322C183.504 14.6328 182.797 15.1412 181.922 15.8475L181.879 12.2034Z" fill="white" fill-opacity="0.8"/>
<path d="M176.117 13.4746V33.4306C176.117 33.9931 176.573 34.4491 177.135 34.4491H184.337C184.507 34.4491 184.648 34.3926 184.761 34.2797C184.874 34.1667 184.93 34.0254 184.93 33.8559V31.9068C184.93 31.7373 184.874 31.596 184.761 31.483C184.648 31.3701 184.507 31.3136 184.337 31.3136H179.422V11.9915C179.422 11.5678 179.266 11.2147 178.956 10.9322C178.673 10.6215 178.32 10.4661 177.896 10.4661H172.6C172.43 10.4661 172.289 10.5226 172.176 10.6356C172.063 10.7486 172.007 10.8898 172.007 11.0593V12.8814C172.007 13.0508 172.063 13.1921 172.176 13.3051C172.289 13.4181 172.43 13.4746 172.6 13.4746H176.117Z" fill="white" fill-opacity="0.8"/>
<path d="M149.19 16.3184C149.19 15.9809 149.464 15.7073 149.801 15.7073H153.468C153.806 15.7073 154.08 15.9809 154.08 16.3184V19.9853C154.08 20.3229 153.806 20.5965 153.468 20.5965H149.801C149.464 20.5965 149.19 20.3229 149.19 19.9853V16.3184Z" fill="white" fill-opacity="0.8"/>
<path d="M156.932 16.3184C156.932 15.9809 157.205 15.7073 157.543 15.7073H168.136C168.473 15.7073 168.747 15.9809 168.747 16.3184V19.9853C168.747 20.3229 168.473 20.5965 168.136 20.5965H157.543C157.205 20.5965 156.932 20.3229 156.932 19.9853V16.3184Z" fill="white" fill-opacity="0.8"/>
<path d="M156.932 24.4671C156.932 24.1295 157.205 23.8559 157.543 23.8559H168.136C168.473 23.8559 168.747 24.1295 168.747 24.4671V28.134C168.747 28.4715 168.473 28.7451 168.136 28.7451H157.543C157.205 28.7451 156.932 28.4715 156.932 28.134V24.4671Z" fill="white" fill-opacity="0.8"/>
<path d="M149.19 24.4671C149.19 24.1295 149.464 23.8559 149.801 23.8559H153.468C153.806 23.8559 154.08 24.1295 154.08 24.4671V28.134C154.08 28.4715 153.806 28.7451 153.468 28.7451H149.801C149.464 28.7451 149.19 28.4715 149.19 28.134V24.4671Z" fill="white" fill-opacity="0.8"/>
<rect width="71" height="71" rx="35.5" fill="white" fill-opacity="0.8"/>
<path d="M14.0407 48.5604C13.5792 48.5604 13.1792 48.4065 12.8408 48.0989C12.5331 47.7604 12.3793 47.3605 12.3793 46.899V25.8546H7.57969C7.39509 25.8546 7.24126 25.793 7.11819 25.67C6.99513 25.5469 6.93359 25.3931 6.93359 25.2085V23.0856C6.93359 22.901 6.99513 22.7471 7.11819 22.6241C7.24126 22.501 7.39509 22.4395 7.57969 22.4395H14.3176C14.7791 22.4395 15.1637 22.6087 15.4713 22.9471C15.8098 23.2548 15.979 23.6394 15.979 24.1009V45.1453H20.7324C20.917 45.1453 21.0709 45.2068 21.1939 45.3299C21.317 45.4529 21.3785 45.6068 21.3785 45.7914V47.9143C21.3785 48.0989 21.317 48.2527 21.1939 48.3758C21.0709 48.4988 20.917 48.5604 20.7324 48.5604H14.0407Z" fill="#000A2F"/>
<path d="M54.4676 25.7161V47.451C54.4676 48.0637 54.9643 48.5604 55.577 48.5604H63.4207C63.6053 48.5604 63.7592 48.4988 63.8822 48.3758C64.0053 48.2527 64.0668 48.0989 64.0668 47.9143V45.7914C64.0668 45.6068 64.0053 45.4529 63.8822 45.3299C63.7592 45.2068 63.6053 45.1453 63.4207 45.1453H58.0673V24.1009C58.0673 23.6394 57.8981 23.2548 57.5597 22.9471C57.252 22.6087 56.8674 22.4395 56.4059 22.4395H50.6372C50.4526 22.4395 50.2987 22.501 50.1757 22.6241C50.0526 22.7471 49.9911 22.901 49.9911 23.0856V25.07C49.9911 25.2546 50.0526 25.4084 50.1757 25.5315C50.2987 25.6546 50.4526 25.7161 50.6372 25.7161H54.4676Z" fill="#000A2F"/>
<path d="M25.1411 28.8135C25.1411 28.4459 25.4391 28.1479 25.8067 28.1479H29.8005C30.1681 28.1479 30.4661 28.4459 30.4661 28.8135V32.8072C30.4661 33.1748 30.1681 33.4729 29.8005 33.4729H25.8067C25.4391 33.4729 25.1411 33.1748 25.1411 32.8072V28.8135Z" fill="#000A2F"/>
<path d="M33.5723 28.8135C33.5723 28.4459 33.8703 28.1479 34.238 28.1479H45.7755C46.1431 28.1479 46.4411 28.4459 46.4411 28.8135V32.8072C46.4411 33.1748 46.1431 33.4729 45.7755 33.4729H34.238C33.8703 33.4729 33.5723 33.1748 33.5723 32.8072V28.8135Z" fill="#000A2F"/>
<path d="M33.5723 37.6885C33.5723 37.3209 33.8703 37.0229 34.238 37.0229H45.7755C46.1431 37.0229 46.4411 37.3209 46.4411 37.6885V41.6822C46.4411 42.0498 46.1431 42.3479 45.7755 42.3479H34.238C33.8703 42.3479 33.5723 42.0498 33.5723 41.6822V37.6885Z" fill="#000A2F"/>
<path d="M25.1411 37.6885C25.1411 37.3209 25.4391 37.0229 25.8067 37.0229H29.8005C30.1681 37.0229 30.4661 37.3209 30.4661 37.6885V41.6822C30.4661 42.0498 30.1681 42.3479 29.8005 42.3479H25.8067C25.4391 42.3479 25.1411 42.0498 25.1411 41.6822V37.6885Z" fill="#000A2F"/>
</svg>
