<svg width="332" height="52" viewBox="0 0 332 52" fill="none" xmlns="http://www.w3.org/2000/svg">
<path d="M63.44 48L63.44 37.44L64.624 37.44L64.624 48L63.44 48ZM63.92 48L63.92 46.928L69.728 46.928L69.728 48L63.92 48ZM74.6274 48.192C73.9874 48.192 73.4274 48.096 72.9474 47.904C72.4674 47.7013 72.062 47.4133 71.7314 47.04C71.4007 46.6667 71.1554 46.224 70.9954 45.712C70.8354 45.2 70.7554 44.6347 70.7554 44.016C70.7554 43.376 70.8354 42.7893 70.9954 42.256C71.166 41.712 71.4114 41.2373 71.7314 40.832C72.0514 40.4267 72.4407 40.1173 72.8994 39.904C73.3687 39.68 73.9074 39.568 74.5154 39.568C75.0274 39.568 75.4967 39.6587 75.9234 39.84C76.35 40.0107 76.718 40.2773 77.0274 40.64C77.3367 41.0027 77.5714 41.4667 77.7314 42.032C77.8914 42.5867 77.9607 43.248 77.9394 44.016L71.4754 44.064L71.4754 43.152L77.2034 43.104L76.8034 43.792C76.846 43.088 76.7714 42.5013 76.5794 42.032C76.398 41.5627 76.126 41.2107 75.7634 40.976C75.4114 40.7413 74.99 40.624 74.4994 40.624C73.9767 40.624 73.518 40.7573 73.1234 41.024C72.7394 41.2907 72.4407 41.68 72.2274 42.192C72.014 42.6933 71.9074 43.296 71.9074 44C71.9074 45.0133 72.1314 45.7973 72.5794 46.352C73.038 46.896 73.7314 47.168 74.6594 47.168C75.0114 47.168 75.3207 47.1307 75.5874 47.056C75.854 46.9707 76.078 46.8533 76.2594 46.704C76.4514 46.5547 76.6114 46.3787 76.7394 46.176C76.8674 45.9733 76.9634 45.7493 77.0274 45.504L78.0674 45.76C77.9607 46.144 77.806 46.4907 77.6034 46.8C77.4114 47.0987 77.1714 47.3547 76.8834 47.568C76.5954 47.7707 76.2647 47.9253 75.8914 48.032C75.518 48.1387 75.0967 48.192 74.6274 48.192ZM83.2259 48.192C82.6499 48.192 82.1379 48.128 81.6899 48C81.2525 47.872 80.8845 47.6907 80.5859 47.456C80.2979 47.2213 80.0792 46.9387 79.9299 46.608C79.7912 46.2773 79.7272 45.9147 79.7379 45.52L80.7939 45.328C80.7512 45.7227 80.8259 46.0587 81.0179 46.336C81.2205 46.6133 81.5139 46.8267 81.8979 46.976C82.2819 47.1147 82.7459 47.184 83.2899 47.184C83.9725 47.184 84.5005 47.0667 84.8739 46.832C85.2472 46.5973 85.4339 46.272 85.4339 45.856C85.4339 45.536 85.3272 45.2853 85.1139 45.104C84.9112 44.9227 84.6285 44.7787 84.2659 44.672C83.9139 44.5653 83.5032 44.4693 83.0339 44.384C82.6499 44.2987 82.2712 44.2027 81.8979 44.096C81.5245 43.9787 81.1832 43.8347 80.8739 43.664C80.5752 43.4933 80.3352 43.2747 80.1539 43.008C79.9725 42.7307 79.8819 42.384 79.8819 41.968C79.8819 41.4667 80.0099 41.04 80.2659 40.688C80.5219 40.336 80.8899 40.064 81.3699 39.872C81.8499 39.6693 82.4205 39.568 83.0819 39.568C83.7539 39.568 84.3192 39.6747 84.7779 39.888C85.2472 40.1013 85.6099 40.4 85.8659 40.784C86.1219 41.168 86.2605 41.616 86.2819 42.128L85.2099 42.352C85.2099 41.9573 85.1192 41.632 84.9379 41.376C84.7565 41.1093 84.5005 40.912 84.1699 40.784C83.8392 40.656 83.4499 40.592 83.0019 40.592C82.3939 40.592 81.9085 40.7093 81.5459 40.944C81.1939 41.1787 81.0179 41.4987 81.0179 41.904C81.0179 42.2133 81.1192 42.464 81.3219 42.656C81.5352 42.8373 81.8179 42.9813 82.1699 43.088C82.5219 43.184 82.9112 43.2747 83.3379 43.36C83.7645 43.4453 84.1699 43.5413 84.5539 43.648C84.9379 43.7547 85.2792 43.8933 85.5779 44.064C85.8872 44.2347 86.1272 44.4587 86.2979 44.736C86.4792 45.0133 86.5699 45.3653 86.5699 45.792C86.5699 46.336 86.4259 46.7893 86.1379 47.152C85.8605 47.504 85.4712 47.7653 84.9699 47.936C84.4685 48.1067 83.8872 48.192 83.2259 48.192ZM96.844 48.192C96.3107 48.192 95.8573 48.0853 95.484 47.872C95.1213 47.6587 94.828 47.3707 94.604 47.008C94.38 46.6453 94.204 46.256 94.076 45.84L93.836 45.84L93.932 48L92.828 48L92.828 43.952L92.828 36.88L94.012 36.88L94.012 39.424C94.012 39.7013 94.0013 40 93.98 40.32C93.9587 40.6293 93.9267 40.944 93.884 41.264C93.8413 41.5733 93.7987 41.8773 93.756 42.176L94.012 42.176C94.1293 41.7493 94.2947 41.3387 94.508 40.944C94.7213 40.5493 95.02 40.224 95.404 39.968C95.788 39.7013 96.2733 39.568 96.86 39.568C97.5533 39.568 98.1453 39.7547 98.636 40.128C99.1267 40.5013 99.5 41.0133 99.756 41.664C100.023 42.304 100.156 43.0453 100.156 43.888C100.156 44.7093 100.028 45.4453 99.772 46.096C99.516 46.7467 99.1427 47.2587 98.652 47.632C98.172 48.0053 97.5693 48.192 96.844 48.192ZM96.668 47.136C97.1373 47.136 97.5427 47.008 97.884 46.752C98.2253 46.4853 98.4813 46.112 98.652 45.632C98.8333 45.152 98.924 44.5867 98.924 43.936C98.924 43.3173 98.8387 42.7627 98.668 42.272C98.4973 41.7707 98.2413 41.376 97.9 41.088C97.5587 40.8 97.1373 40.656 96.636 40.656C96.2733 40.656 95.948 40.7307 95.66 40.88C95.372 41.0187 95.1267 41.2107 94.924 41.456C94.7213 41.7013 94.5507 41.968 94.412 42.256C94.2733 42.5333 94.172 42.816 94.108 43.104C94.044 43.3813 94.012 43.632 94.012 43.856L94.012 44.016C94.012 44.3573 94.0707 44.7093 94.188 45.072C94.316 45.4347 94.4973 45.7707 94.732 46.08C94.9667 46.3893 95.244 46.6453 95.564 46.848C95.8947 47.04 96.2627 47.136 96.668 47.136ZM105.879 48.192C105.1 48.192 104.412 48.0213 103.815 47.68C103.228 47.328 102.769 46.832 102.438 46.192C102.118 45.5413 101.958 44.7573 101.958 43.84C101.958 42.88 102.129 42.0853 102.471 41.456C102.823 40.8267 103.292 40.3573 103.879 40.048C104.465 39.728 105.116 39.568 105.831 39.568C106.567 39.568 107.228 39.7387 107.815 40.08C108.412 40.4107 108.881 40.9013 109.223 41.552C109.575 42.192 109.751 42.9813 109.751 43.92C109.751 44.8587 109.58 45.648 109.239 46.288C108.897 46.9173 108.433 47.392 107.847 47.712C107.26 48.032 106.604 48.192 105.879 48.192ZM105.927 47.168C106.471 47.168 106.94 47.0347 107.335 46.768C107.729 46.5013 108.033 46.128 108.247 45.648C108.46 45.1573 108.567 44.5867 108.567 43.936C108.567 43.264 108.455 42.6827 108.231 42.192C108.007 41.6907 107.687 41.3067 107.271 41.04C106.865 40.7627 106.375 40.624 105.799 40.624C105.265 40.624 104.801 40.752 104.407 41.008C104.012 41.2533 103.703 41.616 103.479 42.096C103.255 42.5653 103.143 43.136 103.143 43.808C103.143 44.8427 103.393 45.664 103.894 46.272C104.396 46.8693 105.073 47.168 105.927 47.168ZM111.969 48L111.969 42.848L111.969 39.76L113.105 39.76L112.913 42.416L113.153 42.416C113.313 41.7653 113.515 41.232 113.761 40.816C114.017 40.3893 114.337 40.0747 114.721 39.872C115.105 39.6693 115.547 39.568 116.049 39.568C116.945 39.568 117.622 39.8933 118.081 40.544C118.55 41.184 118.785 42.128 118.785 43.376L118.785 48L117.601 48L117.601 43.456C117.601 42.5067 117.446 41.8027 117.137 41.344C116.838 40.8853 116.39 40.656 115.793 40.656C115.27 40.656 114.811 40.8267 114.417 41.168C114.033 41.5093 113.734 41.9573 113.521 42.512C113.307 43.056 113.185 43.6427 113.153 44.272L113.153 48L111.969 48ZM121.312 48L121.312 42.848L121.312 39.76L122.448 39.76L122.256 42.416L122.496 42.416C122.656 41.7653 122.859 41.232 123.104 40.816C123.36 40.3893 123.68 40.0747 124.064 39.872C124.448 39.6693 124.891 39.568 125.392 39.568C126.288 39.568 126.966 39.8933 127.424 40.544C127.894 41.184 128.128 42.128 128.128 43.376L128.128 48L126.944 48L126.944 43.456C126.944 42.5067 126.79 41.8027 126.48 41.344C126.182 40.8853 125.734 40.656 125.136 40.656C124.614 40.656 124.155 40.8267 123.76 41.168C123.376 41.5093 123.078 41.9573 122.864 42.512C122.651 43.056 122.528 43.6427 122.496 44.272L122.496 48L121.312 48ZM134.096 48.192C133.456 48.192 132.896 48.096 132.416 47.904C131.936 47.7013 131.531 47.4133 131.2 47.04C130.869 46.6667 130.624 46.224 130.464 45.712C130.304 45.2 130.224 44.6347 130.224 44.016C130.224 43.376 130.304 42.7893 130.464 42.256C130.635 41.712 130.88 41.2373 131.2 40.832C131.52 40.4267 131.909 40.1173 132.368 39.904C132.837 39.68 133.376 39.568 133.984 39.568C134.496 39.568 134.965 39.6587 135.392 39.84C135.819 40.0107 136.187 40.2773 136.496 40.64C136.805 41.0027 137.04 41.4667 137.2 42.032C137.36 42.5867 137.429 43.248 137.408 44.016L130.944 44.064L130.944 43.152L136.672 43.104L136.272 43.792C136.315 43.088 136.24 42.5013 136.048 42.032C135.867 41.5627 135.595 41.2107 135.232 40.976C134.88 40.7413 134.459 40.624 133.968 40.624C133.445 40.624 132.987 40.7573 132.592 41.024C132.208 41.2907 131.909 41.68 131.696 42.192C131.483 42.6933 131.376 43.296 131.376 44C131.376 45.0133 131.6 45.7973 132.048 46.352C132.507 46.896 133.2 47.168 134.128 47.168C134.48 47.168 134.789 47.1307 135.056 47.056C135.323 46.9707 135.547 46.8533 135.728 46.704C135.92 46.5547 136.08 46.3787 136.208 46.176C136.336 45.9733 136.432 45.7493 136.496 45.504L137.536 45.76C137.429 46.144 137.275 46.4907 137.072 46.8C136.88 47.0987 136.64 47.3547 136.352 47.568C136.064 47.7707 135.733 47.9253 135.36 48.032C134.987 48.1387 134.565 48.192 134.096 48.192ZM142.695 48.192C142.119 48.192 141.607 48.128 141.159 48C140.721 47.872 140.353 47.6907 140.055 47.456C139.767 47.2213 139.548 46.9387 139.399 46.608C139.26 46.2773 139.196 45.9147 139.207 45.52L140.263 45.328C140.22 45.7227 140.295 46.0587 140.487 46.336C140.689 46.6133 140.983 46.8267 141.367 46.976C141.751 47.1147 142.215 47.184 142.759 47.184C143.441 47.184 143.969 47.0667 144.343 46.832C144.716 46.5973 144.903 46.272 144.903 45.856C144.903 45.536 144.796 45.2853 144.583 45.104C144.38 44.9227 144.097 44.7787 143.735 44.672C143.383 44.5653 142.972 44.4693 142.503 44.384C142.119 44.2987 141.74 44.2027 141.367 44.096C140.993 43.9787 140.652 43.8347 140.343 43.664C140.044 43.4933 139.804 43.2747 139.623 43.008C139.441 42.7307 139.351 42.384 139.351 41.968C139.351 41.4667 139.479 41.04 139.735 40.688C139.991 40.336 140.359 40.064 140.839 39.872C141.319 39.6693 141.889 39.568 142.551 39.568C143.223 39.568 143.788 39.6747 144.247 39.888C144.716 40.1013 145.079 40.4 145.335 40.784C145.591 41.168 145.729 41.616 145.751 42.128L144.679 42.352C144.679 41.9573 144.588 41.632 144.407 41.376C144.225 41.1093 143.969 40.912 143.639 40.784C143.308 40.656 142.919 40.592 142.471 40.592C141.863 40.592 141.377 40.7093 141.015 40.944C140.663 41.1787 140.487 41.4987 140.487 41.904C140.487 42.2133 140.588 42.464 140.791 42.656C141.004 42.8373 141.287 42.9813 141.639 43.088C141.991 43.184 142.38 43.2747 142.807 43.36C143.233 43.4453 143.639 43.5413 144.023 43.648C144.407 43.7547 144.748 43.8933 145.047 44.064C145.356 44.2347 145.596 44.4587 145.767 44.736C145.948 45.0133 146.039 45.3653 146.039 45.792C146.039 46.336 145.895 46.7893 145.607 47.152C145.329 47.504 144.94 47.7653 144.439 47.936C143.937 48.1067 143.356 48.192 142.695 48.192ZM154.185 48.192C153.737 48.192 153.331 48.112 152.969 47.952C152.606 47.7813 152.318 47.52 152.105 47.168C151.891 46.816 151.785 46.3787 151.785 45.856C151.785 45.4827 151.849 45.1467 151.977 44.848C152.115 44.5493 152.329 44.2933 152.617 44.08C152.905 43.856 153.289 43.6693 153.769 43.52C154.249 43.3707 154.835 43.2533 155.529 43.168C155.955 43.1147 156.297 43.0613 156.553 43.008C156.809 42.944 156.995 42.8533 157.113 42.736C157.241 42.608 157.305 42.416 157.305 42.16C157.305 41.7227 157.155 41.3547 156.857 41.056C156.558 40.7467 156.089 40.592 155.449 40.592C155.139 40.592 154.814 40.6453 154.473 40.752C154.131 40.8587 153.833 41.0453 153.577 41.312C153.321 41.5787 153.161 41.9573 153.097 42.448L151.993 42.048C152.067 41.6747 152.195 41.3387 152.377 41.04C152.558 40.7413 152.798 40.48 153.097 40.256C153.395 40.032 153.742 39.8613 154.137 39.744C154.542 39.6267 154.99 39.568 155.481 39.568C156.153 39.568 156.707 39.68 157.145 39.904C157.593 40.128 157.923 40.4747 158.137 40.944C158.361 41.4027 158.473 41.9947 158.473 42.72L158.473 44.688C158.473 45.008 158.478 45.3653 158.489 45.76C158.51 46.144 158.537 46.5333 158.569 46.928C158.601 47.312 158.633 47.6693 158.665 48L157.561 48C157.529 47.6373 157.502 47.2853 157.481 46.944C157.459 46.6027 157.443 46.2613 157.433 45.92L157.241 45.92C157.091 46.3147 156.883 46.688 156.617 47.04C156.35 47.3813 156.014 47.6587 155.609 47.872C155.214 48.0853 154.739 48.192 154.185 48.192ZM154.441 47.184C154.675 47.184 154.921 47.1467 155.177 47.072C155.433 46.9867 155.689 46.8587 155.945 46.688C156.201 46.5067 156.441 46.272 156.665 45.984C156.899 45.6853 157.118 45.328 157.321 44.912L157.321 43.232L157.769 43.312C157.598 43.4933 157.363 43.632 157.065 43.728C156.777 43.8133 156.451 43.8827 156.089 43.936C155.726 43.9893 155.358 44.048 154.985 44.112C154.622 44.176 154.286 44.272 153.977 44.4C153.678 44.5173 153.433 44.688 153.241 44.912C153.059 45.1253 152.969 45.424 152.969 45.808C152.969 46.2667 153.102 46.6133 153.369 46.848C153.646 47.072 154.003 47.184 154.441 47.184ZM164.502 48.192C163.777 48.192 163.169 48.0747 162.678 47.84C162.188 47.6053 161.793 47.2853 161.494 46.88C161.196 46.4747 160.977 46.0213 160.838 45.52C160.7 45.0187 160.63 44.5013 160.63 43.968C160.63 43.3707 160.705 42.8107 160.854 42.288C161.014 41.7547 161.249 41.2853 161.558 40.88C161.878 40.464 162.273 40.144 162.742 39.92C163.212 39.6853 163.766 39.568 164.406 39.568C165.014 39.568 165.553 39.68 166.022 39.904C166.502 40.1173 166.892 40.4213 167.19 40.816C167.489 41.2 167.676 41.664 167.75 42.208L166.614 42.496C166.593 42.2187 166.502 41.936 166.342 41.648C166.182 41.3493 165.942 41.104 165.622 40.912C165.313 40.72 164.908 40.624 164.406 40.624C163.969 40.624 163.59 40.7093 163.27 40.88C162.95 41.0507 162.684 41.2907 162.47 41.6C162.257 41.8987 162.097 42.2507 161.99 42.656C161.884 43.0613 161.83 43.4987 161.83 43.968C161.83 44.5867 161.921 45.136 162.102 45.616C162.294 46.096 162.588 46.4747 162.982 46.752C163.377 47.0293 163.889 47.168 164.518 47.168C164.966 47.168 165.356 47.0933 165.686 46.944C166.017 46.784 166.278 46.56 166.47 46.272C166.673 45.984 166.806 45.6267 166.87 45.2L167.974 45.456C167.889 45.936 167.74 46.3467 167.526 46.688C167.324 47.0293 167.068 47.312 166.758 47.536C166.46 47.76 166.118 47.9253 165.734 48.032C165.361 48.1387 164.95 48.192 164.502 48.192ZM172.166 48.16C171.451 48.16 170.918 47.9627 170.565 47.568C170.224 47.1733 170.053 46.5867 170.053 45.808L170.054 40.784L168.805 40.784L168.805 39.76L169.557 39.76C169.803 39.76 169.979 39.7173 170.086 39.632C170.203 39.536 170.272 39.3813 170.294 39.168L170.437 37.904L171.19 37.904L171.19 39.76L173.654 39.76L173.654 40.8L171.19 40.8L171.19 45.808C171.19 46.2453 171.291 46.5653 171.494 46.768C171.696 46.96 171.984 47.056 172.358 47.056C172.56 47.056 172.774 47.0293 172.998 46.976C173.222 46.912 173.456 46.7893 173.702 46.608L173.702 47.84C173.403 47.9467 173.126 48.0267 172.87 48.08C172.614 48.1333 172.379 48.16 172.166 48.16ZM175.594 48L175.594 39.76L176.778 39.76L176.778 48L175.594 48ZM176.186 38.256C175.887 38.256 175.663 38.1973 175.514 38.08C175.365 37.952 175.29 37.7653 175.29 37.52C175.29 37.2853 175.365 37.104 175.514 36.976C175.663 36.848 175.882 36.784 176.17 36.784C176.469 36.784 176.693 36.848 176.842 36.976C177.002 37.0933 177.082 37.2747 177.082 37.52C177.082 37.7653 177.002 37.952 176.842 38.08C176.693 38.1973 176.474 38.256 176.186 38.256ZM182.925 48.192C182.147 48.192 181.459 48.0213 180.861 47.68C180.275 47.328 179.816 46.832 179.485 46.192C179.165 45.5413 179.005 44.7573 179.005 43.84C179.005 42.88 179.176 42.0853 179.517 41.456C179.869 40.8267 180.339 40.3573 180.925 40.048C181.512 39.728 182.163 39.568 182.877 39.568C183.613 39.568 184.275 39.7387 184.861 40.08C185.459 40.4107 185.928 40.9013 186.269 41.552C186.621 42.192 186.797 42.9813 186.797 43.92C186.797 44.8587 186.627 45.648 186.285 46.288C185.944 46.9173 185.48 47.392 184.893 47.712C184.307 48.032 183.651 48.192 182.925 48.192ZM182.973 47.168C183.517 47.168 183.987 47.0347 184.381 46.768C184.776 46.5013 185.08 46.128 185.293 45.648C185.507 45.1573 185.613 44.5867 185.613 43.936C185.613 43.264 185.501 42.6827 185.277 42.192C185.053 41.6907 184.733 41.3067 184.317 41.04C183.912 40.7627 183.421 40.624 182.845 40.624C182.312 40.624 181.848 40.752 181.453 41.008C181.059 41.2533 180.749 41.616 180.525 42.096C180.301 42.5653 180.189 43.136 180.189 43.808C180.189 44.8427 180.44 45.664 180.941 46.272C181.443 46.8693 182.12 47.168 182.973 47.168ZM189.015 48L189.016 42.848L189.016 39.76L190.152 39.76L189.96 42.416L190.2 42.416C190.36 41.7653 190.562 41.232 190.808 40.816C191.064 40.3893 191.384 40.0747 191.768 39.872C192.152 39.6693 192.594 39.568 193.096 39.568C193.992 39.568 194.669 39.8933 195.128 40.544C195.597 41.184 195.832 42.128 195.832 43.376L195.831 48L194.648 48L194.648 43.456C194.648 42.5067 194.493 41.8027 194.184 41.344C193.885 40.8853 193.437 40.656 192.84 40.656C192.317 40.656 191.858 40.8267 191.464 41.168C191.08 41.5093 190.781 41.9573 190.568 42.512C190.354 43.056 190.232 43.6427 190.2 44.272L190.2 48L189.015 48ZM201.335 48.192C200.759 48.192 200.247 48.128 199.799 48C199.362 47.872 198.994 47.6907 198.695 47.456C198.407 47.2213 198.189 46.9387 198.039 46.608C197.901 46.2773 197.837 45.9147 197.847 45.52L198.903 45.328C198.861 45.7227 198.935 46.0587 199.127 46.336C199.33 46.6133 199.623 46.8267 200.007 46.976C200.391 47.1147 200.855 47.184 201.399 47.184C202.082 47.184 202.61 47.0667 202.983 46.832C203.357 46.5973 203.543 46.272 203.543 45.856C203.543 45.536 203.437 45.2853 203.223 45.104C203.021 44.9227 202.738 44.7787 202.375 44.672C202.023 44.5653 201.613 44.4693 201.143 44.384C200.759 44.2987 200.381 44.2027 200.007 44.096C199.634 43.9787 199.293 43.8347 198.983 43.664C198.685 43.4933 198.445 43.2747 198.263 43.008C198.082 42.7307 197.991 42.384 197.991 41.968C197.991 41.4667 198.119 41.04 198.375 40.688C198.631 40.336 198.999 40.064 199.479 39.872C199.959 39.6693 200.53 39.568 201.191 39.568C201.863 39.568 202.429 39.6747 202.887 39.888C203.357 40.1013 203.719 40.4 203.975 40.784C204.231 41.168 204.37 41.616 204.391 42.128L203.319 42.352C203.319 41.9573 203.229 41.632 203.047 41.376C202.866 41.1093 202.61 40.912 202.279 40.784C201.949 40.656 201.559 40.592 201.111 40.592C200.503 40.592 200.018 40.7093 199.655 40.944C199.303 41.1787 199.127 41.4987 199.127 41.904C199.127 42.2133 199.229 42.464 199.431 42.656C199.645 42.8373 199.927 42.9813 200.279 43.088C200.631 43.184 201.021 43.2747 201.447 43.36C201.874 43.4453 202.279 43.5413 202.663 43.648C203.047 43.7547 203.389 43.8933 203.687 44.064C203.997 44.2347 204.237 44.4587 204.407 44.736C204.589 45.0133 204.679 45.3653 204.679 45.792C204.679 46.336 204.535 46.7893 204.247 47.152C203.97 47.504 203.581 47.7653 203.079 47.936C202.578 48.1067 201.997 48.192 201.335 48.192ZM205.407 50.208C205.599 49.7173 205.732 49.28 205.807 48.896C205.892 48.512 205.94 48.16 205.951 47.84C205.972 47.5093 205.983 47.2053 205.983 46.928L207.135 46.928C207.135 47.4187 207.097 47.8667 207.023 48.272C206.959 48.6773 206.868 49.04 206.751 49.36C206.644 49.68 206.532 49.9627 206.415 50.208L205.407 50.208ZM214.904 48.192C214.456 48.192 214.05 48.112 213.687 47.952C213.325 47.7813 213.037 47.52 212.823 47.168C212.61 46.816 212.503 46.3787 212.503 45.856C212.503 45.4827 212.567 45.1467 212.695 44.848C212.834 44.5493 213.048 44.2933 213.336 44.08C213.624 43.856 214.008 43.6693 214.488 43.52C214.968 43.3707 215.554 43.2533 216.248 43.168C216.674 43.1147 217.016 43.0613 217.272 43.008C217.528 42.944 217.714 42.8533 217.832 42.736C217.96 42.608 218.024 42.416 218.024 42.16C218.024 41.7227 217.874 41.3547 217.576 41.056C217.277 40.7467 216.808 40.592 216.167 40.592C215.858 40.592 215.533 40.6453 215.192 40.752C214.85 40.8587 214.552 41.0453 214.296 41.312C214.04 41.5787 213.88 41.9573 213.815 42.448L212.712 42.048C212.786 41.6747 212.914 41.3387 213.096 41.04C213.277 40.7413 213.517 40.48 213.815 40.256C214.114 40.032 214.461 39.8613 214.856 39.744C215.261 39.6267 215.709 39.568 216.2 39.568C216.872 39.568 217.426 39.68 217.864 39.904C218.312 40.128 218.642 40.4747 218.856 40.944C219.08 41.4027 219.192 41.9947 219.192 42.72L219.192 44.688C219.192 45.008 219.197 45.3653 219.208 45.76C219.229 46.144 219.256 46.5333 219.288 46.928C219.32 47.312 219.352 47.6693 219.384 48L218.28 48C218.248 47.6373 218.221 47.2853 218.2 46.944C218.178 46.6027 218.162 46.2613 218.152 45.92L217.96 45.92C217.81 46.3147 217.602 46.688 217.336 47.04C217.069 47.3813 216.733 47.6587 216.328 47.872C215.933 48.0853 215.458 48.192 214.904 48.192ZM215.16 47.184C215.394 47.184 215.64 47.1467 215.896 47.072C216.152 46.9867 216.408 46.8587 216.664 46.688C216.92 46.5067 217.16 46.272 217.384 45.984C217.618 45.6853 217.837 45.328 218.04 44.912L218.04 43.232L218.488 43.312C218.317 43.4933 218.082 43.632 217.784 43.728C217.496 43.8133 217.17 43.8827 216.808 43.936C216.445 43.9893 216.077 44.048 215.704 44.112C215.341 44.176 215.005 44.272 214.696 44.4C214.397 44.5173 214.152 44.688 213.96 44.912C213.778 45.1253 213.687 45.424 213.687 45.808C213.687 46.2667 213.821 46.6133 214.088 46.848C214.365 47.072 214.722 47.184 215.16 47.184ZM224.389 48.192C223.493 48.192 222.81 47.8827 222.341 47.264C221.882 46.6347 221.653 45.696 221.653 44.448L221.653 39.76L222.853 39.76L222.853 44.368C222.853 45.296 222.997 45.9893 223.285 46.448C223.573 46.896 224.032 47.12 224.661 47.12C225.002 47.12 225.312 47.0347 225.589 46.864C225.866 46.6933 226.112 46.4587 226.325 46.16C226.538 45.8507 226.714 45.4827 226.853 45.056C226.992 44.6293 227.093 44.16 227.157 43.648L227.157 39.76L228.325 39.76L228.325 44.528L228.325 48L227.221 48L227.397 45.328L227.157 45.328C227.04 45.9893 226.848 46.5333 226.581 46.96C226.325 47.376 226.01 47.6853 225.637 47.888C225.264 48.0907 224.848 48.192 224.389 48.192ZM239.172 48.192C238.639 48.192 238.185 48.0853 237.812 47.872C237.449 47.6587 237.156 47.3707 236.932 47.008C236.708 46.6453 236.532 46.256 236.404 45.84L236.164 45.84L236.26 48L235.156 48L235.156 43.952L235.156 36.88L236.34 36.88L236.34 39.424C236.34 39.7013 236.329 40 236.308 40.32C236.287 40.6293 236.255 40.944 236.212 41.264C236.169 41.5733 236.127 41.8773 236.084 42.176L236.34 42.176C236.457 41.7493 236.623 41.3387 236.836 40.944C237.049 40.5493 237.348 40.224 237.732 39.968C238.116 39.7013 238.601 39.568 239.188 39.568C239.881 39.568 240.473 39.7547 240.964 40.128C241.455 40.5013 241.828 41.0133 242.084 41.664C242.351 42.304 242.484 43.0453 242.484 43.888C242.484 44.7093 242.356 45.4453 242.1 46.096C241.844 46.7467 241.471 47.2587 240.98 47.632C240.5 48.0053 239.897 48.192 239.172 48.192ZM238.996 47.136C239.465 47.136 239.871 47.008 240.212 46.752C240.553 46.4853 240.809 46.112 240.98 45.632C241.161 45.152 241.252 44.5867 241.252 43.936C241.252 43.3173 241.167 42.7627 240.996 42.272C240.825 41.7707 240.569 41.376 240.228 41.088C239.887 40.8 239.465 40.656 238.964 40.656C238.601 40.656 238.276 40.7307 237.988 40.88C237.7 41.0187 237.455 41.2107 237.252 41.456C237.049 41.7013 236.879 41.968 236.74 42.256C236.601 42.5333 236.5 42.816 236.436 43.104C236.372 43.3813 236.34 43.632 236.34 43.856L236.34 44.016C236.34 44.3573 236.399 44.7093 236.516 45.072C236.644 45.4347 236.825 45.7707 237.06 46.08C237.295 46.3893 237.572 46.6453 237.892 46.848C238.223 47.04 238.591 47.136 238.996 47.136ZM248.207 48.192C247.428 48.192 246.74 48.0213 246.143 47.68C245.556 47.328 245.097 46.832 244.767 46.192C244.447 45.5413 244.287 44.7573 244.287 43.84C244.287 42.88 244.457 42.0853 244.799 41.456C245.151 40.8267 245.62 40.3573 246.207 40.048C246.793 39.728 247.444 39.568 248.159 39.568C248.895 39.568 249.556 39.7387 250.143 40.08C250.74 40.4107 251.209 40.9013 251.551 41.552C251.903 42.192 252.079 42.9813 252.079 43.92C252.079 44.8587 251.908 45.648 251.567 46.288C251.225 46.9173 250.761 47.392 250.175 47.712C249.588 48.032 248.932 48.192 248.207 48.192ZM248.255 47.168C248.799 47.168 249.268 47.0347 249.663 46.768C250.057 46.5013 250.361 46.128 250.575 45.648C250.788 45.1573 250.895 44.5867 250.895 43.936C250.895 43.264 250.783 42.6827 250.559 42.192C250.335 41.6907 250.015 41.3067 249.599 41.04C249.193 40.7627 248.703 40.624 248.127 40.624C247.593 40.624 247.129 40.752 246.735 41.008C246.34 41.2533 246.031 41.616 245.807 42.096C245.583 42.5653 245.471 43.136 245.471 43.808C245.471 44.8427 245.721 45.664 246.223 46.272C246.724 46.8693 247.401 47.168 248.255 47.168ZM254.297 48L254.297 42.848L254.297 39.76L255.433 39.76L255.241 42.416L255.481 42.416C255.641 41.7653 255.843 41.232 256.089 40.816C256.345 40.3893 256.665 40.0747 257.049 39.872C257.433 39.6693 257.875 39.568 258.377 39.568C259.273 39.568 259.95 39.8933 260.409 40.544C260.878 41.184 261.113 42.128 261.113 43.376L261.113 48L259.929 48L259.929 43.456C259.929 42.5067 259.774 41.8027 259.465 41.344C259.166 40.8853 258.718 40.656 258.121 40.656C257.598 40.656 257.139 40.8267 256.745 41.168C256.361 41.5093 256.062 41.9573 255.849 42.512C255.635 43.056 255.513 43.6427 255.481 44.272L255.481 48L254.297 48ZM267.812 48L267.812 42.96L267.812 39.76L268.916 39.76L268.756 42.416L268.996 42.416C269.135 41.7867 269.322 41.264 269.556 40.848C269.791 40.4213 270.079 40.1013 270.42 39.888C270.772 39.6747 271.167 39.568 271.604 39.568C272.148 39.568 272.591 39.7067 272.932 39.984C273.274 40.2507 273.524 40.5973 273.684 41.024C273.844 41.4507 273.919 41.8987 273.908 42.368L274.148 42.368C274.255 41.7813 274.426 41.28 274.66 40.864C274.895 40.4373 275.194 40.1173 275.556 39.904C275.919 39.68 276.335 39.568 276.804 39.568C277.21 39.568 277.567 39.6533 277.876 39.824C278.196 39.9947 278.463 40.24 278.676 40.56C278.9 40.88 279.066 41.28 279.172 41.76C279.279 42.24 279.332 42.7893 279.332 43.408L279.332 48L278.164 48L278.164 43.568C278.164 42.9173 278.1 42.3787 277.972 41.952C277.855 41.5253 277.674 41.2053 277.428 40.992C277.194 40.7787 276.895 40.672 276.532 40.672C276.116 40.672 275.743 40.816 275.412 41.104C275.082 41.3813 274.804 41.7707 274.58 42.272C274.367 42.7733 274.223 43.3493 274.148 44L274.148 48L272.996 48L272.996 43.728C272.996 43.0453 272.938 42.48 272.82 42.032C272.703 41.5733 272.522 41.232 272.276 41.008C272.031 40.784 271.727 40.672 271.364 40.672C270.916 40.672 270.527 40.8267 270.196 41.136C269.866 41.4347 269.599 41.8453 269.396 42.368C269.194 42.88 269.06 43.4507 268.996 44.08L268.996 48L267.812 48ZM285.347 48.192C284.569 48.192 283.881 48.0213 283.283 47.68C282.697 47.328 282.238 46.832 281.907 46.192C281.587 45.5413 281.427 44.7573 281.427 43.84C281.427 42.88 281.598 42.0853 281.939 41.456C282.291 40.8267 282.761 40.3573 283.347 40.048C283.934 39.728 284.585 39.568 285.299 39.568C286.035 39.568 286.697 39.7387 287.283 40.08C287.881 40.4107 288.35 40.9013 288.691 41.552C289.043 42.192 289.219 42.9813 289.219 43.92C289.219 44.8587 289.049 45.648 288.707 46.288C288.366 46.9173 287.902 47.392 287.315 47.712C286.729 48.032 286.073 48.192 285.347 48.192ZM285.395 47.168C285.939 47.168 286.409 47.0347 286.803 46.768C287.198 46.5013 287.502 46.128 287.715 45.648C287.929 45.1573 288.035 44.5867 288.035 43.936C288.035 43.264 287.923 42.6827 287.699 42.192C287.475 41.6907 287.155 41.3067 286.739 41.04C286.334 40.7627 285.843 40.624 285.267 40.624C284.734 40.624 284.27 40.752 283.875 41.008C283.481 41.2533 283.171 41.616 282.947 42.096C282.723 42.5653 282.611 43.136 282.611 43.808C282.611 44.8427 282.862 45.664 283.363 46.272C283.865 46.8693 284.542 47.168 285.395 47.168ZM291.437 48L291.437 42.96L291.437 39.76L292.541 39.76L292.381 42.416L292.621 42.416C292.76 41.7867 292.947 41.264 293.181 40.848C293.416 40.4213 293.704 40.1013 294.045 39.888C294.397 39.6747 294.792 39.568 295.229 39.568C295.773 39.568 296.216 39.7067 296.557 39.984C296.899 40.2507 297.149 40.5973 297.309 41.024C297.469 41.4507 297.544 41.8987 297.533 42.368L297.773 42.368C297.88 41.7813 298.051 41.28 298.285 40.864C298.52 40.4373 298.819 40.1173 299.181 39.904C299.544 39.68 299.96 39.568 300.429 39.568C300.835 39.568 301.192 39.6533 301.501 39.824C301.821 39.9947 302.088 40.24 302.301 40.56C302.525 40.88 302.691 41.28 302.797 41.76C302.904 42.24 302.957 42.7893 302.957 43.408L302.957 48L301.789 48L301.789 43.568C301.789 42.9173 301.725 42.3787 301.597 41.952C301.48 41.5253 301.299 41.2053 301.053 40.992C300.819 40.7787 300.52 40.672 300.157 40.672C299.741 40.672 299.368 40.816 299.037 41.104C298.707 41.3813 298.429 41.7707 298.205 42.272C297.992 42.7733 297.848 43.3493 297.773 44L297.773 48L296.621 48L296.621 43.728C296.621 43.0453 296.563 42.48 296.445 42.032C296.328 41.5733 296.147 41.232 295.901 41.008C295.656 40.784 295.352 40.672 294.989 40.672C294.541 40.672 294.152 40.8267 293.821 41.136C293.491 41.4347 293.224 41.8453 293.021 42.368C292.819 42.88 292.685 43.4507 292.621 44.08L292.621 48L291.437 48ZM308.924 48.192C308.284 48.192 307.724 48.096 307.244 47.904C306.764 47.7013 306.359 47.4133 306.028 47.04C305.698 46.6667 305.452 46.224 305.292 45.712C305.132 45.2 305.052 44.6347 305.052 44.016C305.052 43.376 305.132 42.7893 305.292 42.256C305.463 41.712 305.708 41.2373 306.028 40.832C306.348 40.4267 306.738 40.1173 307.196 39.904C307.666 39.68 308.204 39.568 308.812 39.568C309.324 39.568 309.794 39.6587 310.22 39.84C310.647 40.0107 311.015 40.2773 311.324 40.64C311.634 41.0027 311.868 41.4667 312.028 42.032C312.188 42.5867 312.258 43.248 312.236 44.016L305.772 44.064L305.772 43.152L311.5 43.104L311.1 43.792C311.143 43.088 311.068 42.5013 310.876 42.032C310.695 41.5627 310.423 41.2107 310.06 40.976C309.708 40.7413 309.287 40.624 308.796 40.624C308.274 40.624 307.815 40.7573 307.42 41.024C307.036 41.2907 306.738 41.68 306.524 42.192C306.311 42.6933 306.204 43.296 306.204 44C306.204 45.0133 306.428 45.7973 306.876 46.352C307.335 46.896 308.028 47.168 308.956 47.168C309.308 47.168 309.618 47.1307 309.884 47.056C310.151 46.9707 310.375 46.8533 310.556 46.704C310.748 46.5547 310.908 46.3787 311.036 46.176C311.164 45.9733 311.26 45.7493 311.324 45.504L312.364 45.76C312.258 46.144 312.103 46.4907 311.9 46.8C311.708 47.0987 311.468 47.3547 311.18 47.568C310.892 47.7707 310.562 47.9253 310.188 48.032C309.815 48.1387 309.394 48.192 308.924 48.192ZM314.422 48L314.422 42.848L314.422 39.76L315.558 39.76L315.366 42.416L315.606 42.416C315.766 41.7653 315.968 41.232 316.214 40.816C316.47 40.3893 316.79 40.0747 317.174 39.872C317.558 39.6693 318 39.568 318.502 39.568C319.398 39.568 320.075 39.8933 320.534 40.544C321.003 41.184 321.238 42.128 321.238 43.376L321.238 48L320.054 48L320.054 43.456C320.054 42.5067 319.899 41.8027 319.59 41.344C319.291 40.8853 318.843 40.656 318.246 40.656C317.723 40.656 317.264 40.8267 316.87 41.168C316.486 41.5093 316.187 41.9573 315.974 42.512C315.76 43.056 315.638 43.6427 315.606 44.272L315.606 48L314.422 48ZM326.15 48.16C325.435 48.16 324.902 47.9627 324.55 47.568C324.209 47.1733 324.038 46.5867 324.038 45.808L324.038 40.784L322.79 40.784L322.79 39.76L323.542 39.76C323.787 39.76 323.963 39.7173 324.07 39.632C324.187 39.536 324.257 39.3813 324.278 39.168L324.422 37.904L325.174 37.904L325.174 39.76L327.638 39.76L327.638 40.8L325.174 40.8L325.174 45.808C325.174 46.2453 325.275 46.5653 325.478 46.768C325.681 46.96 325.969 47.056 326.342 47.056C326.545 47.056 326.758 47.0293 326.982 46.976C327.206 46.912 327.441 46.7893 327.686 46.608L327.686 47.84C327.387 47.9467 327.11 48.0267 326.854 48.08C326.598 48.1333 326.363 48.16 326.15 48.16ZM330.155 48.176C329.867 48.176 329.648 48.112 329.499 47.984C329.349 47.856 329.275 47.6533 329.275 47.376C329.275 47.088 329.349 46.88 329.499 46.752C329.648 46.624 329.867 46.56 330.155 46.56C330.453 46.56 330.677 46.624 330.827 46.752C330.976 46.88 331.051 47.088 331.051 47.376C331.051 47.9093 330.752 48.176 330.155 48.176Z" fill="#00092B" fill-opacity="0.8"/>
<path d="M74.4091 24.8002H72.4344C72.2463 24.8002 72.0687 24.7062 71.9015 24.5181L64.4728 15.146H63.4384V24.3927C63.4384 24.5181 63.3862 24.6226 63.2817 24.7062C63.1981 24.7689 63.0936 24.8002 62.9683 24.8002H61.3383C61.213 24.8002 61.098 24.7689 60.9935 24.7062C60.91 24.6226 60.8682 24.5181 60.8682 24.3927V3.45445C60.8682 3.32907 60.91 3.22459 60.9935 3.141C61.0771 3.05742 61.1816 3.01562 61.307 3.01562H62.9996C63.125 3.01562 63.2295 3.05742 63.3131 3.141C63.3966 3.22459 63.4384 3.32907 63.4384 3.45445V12.7952H64.3474L71.9328 3.29773C72.1 3.10966 72.2881 3.01562 72.4971 3.01562H74.4718C74.618 3.01562 74.7225 3.05742 74.7852 3.141C74.8688 3.22459 74.9106 3.31862 74.9106 3.42311C74.9106 3.54849 74.8688 3.65297 74.7852 3.73655L66.6669 13.7982L74.7539 24.0166C74.8375 24.1002 74.8792 24.2047 74.8792 24.33C74.8792 24.4763 74.827 24.5912 74.7225 24.6748C74.6389 24.7584 74.5345 24.8002 74.4091 24.8002Z" fill="#00092B" fill-opacity="0.8"/>
<path d="M82.7617 25.2077C81.696 25.2077 80.7452 25.0092 79.9093 24.6121C79.0944 24.1942 78.4466 23.6091 77.966 22.8568C77.5062 22.1046 77.2764 21.2374 77.2764 20.2552C77.2764 18.8761 77.7466 17.7372 78.6869 16.8386C79.6272 15.9401 80.9228 15.3759 82.5736 15.146C83.0752 15.0624 83.5453 14.9998 83.9842 14.958C84.4439 14.8953 84.8932 14.8326 85.332 14.7699C85.7708 14.7072 86.2096 14.6445 86.6485 14.5818C87.2545 14.4773 87.6933 14.2684 87.9649 13.9549C88.2366 13.6415 88.3724 13.1818 88.3724 12.5758V12.325C88.3724 11.3011 87.9754 10.4861 87.1813 9.88012C86.3872 9.27412 85.4156 8.97112 84.2663 8.97112C83.3259 8.97112 82.511 9.15919 81.8214 9.53533C81.1527 9.91146 80.6303 10.413 80.2541 11.0399C80.087 11.3115 79.878 11.4474 79.6272 11.4474C79.5019 11.4474 79.366 11.3951 79.2198 11.2906L78.3735 10.7264C78.1854 10.5593 78.0913 10.3816 78.0913 10.1936C78.0913 10.11 78.1227 10.0055 78.1854 9.88012C78.7705 8.89798 79.5854 8.11437 80.6303 7.52927C81.696 6.94416 82.9289 6.65161 84.3289 6.65161C85.6036 6.65161 86.7216 6.89192 87.6828 7.37254C88.6441 7.83226 89.3963 8.4905 89.9396 9.34726C90.483 10.1831 90.7546 11.1757 90.7546 12.325V24.3614C90.7546 24.4868 90.7128 24.5912 90.6292 24.6748C90.5456 24.7584 90.4412 24.8002 90.3158 24.8002H88.9993C88.7068 24.8002 88.5605 24.6539 88.5605 24.3614V22.1986C87.9127 23.1389 87.0873 23.8808 86.0843 24.4241C85.0812 24.9465 83.9737 25.2077 82.7617 25.2077ZM83.0125 23.0136C84.0991 23.0136 85.0499 22.7314 85.8648 22.1672C86.6798 21.603 87.3171 20.9135 87.7769 20.0985C88.2366 19.2626 88.4664 18.4686 88.4664 17.7163V16.4312C87.8396 16.4939 87.2545 16.567 86.7111 16.6506C86.1678 16.7133 85.5827 16.7969 84.9558 16.9013C84.3498 16.9849 83.6185 17.0894 82.7617 17.2148C80.6721 17.5282 79.6272 18.5104 79.6272 20.1612C79.6272 21.0179 79.9407 21.7075 80.5676 22.2299C81.1945 22.7523 82.0094 23.0136 83.0125 23.0136Z" fill="#00092B" fill-opacity="0.8"/>
<path d="M99.3333 24.8002C99.0198 24.8002 98.7482 24.6957 98.5183 24.4868C98.3093 24.2569 98.2049 23.9852 98.2049 23.6718V9.3786H94.945C94.8196 9.3786 94.7151 9.33681 94.6316 9.25322C94.548 9.16964 94.5062 9.06516 94.5062 8.93978V7.49792C94.5062 7.37254 94.548 7.26806 94.6316 7.18447C94.7151 7.10089 94.8196 7.05909 94.945 7.05909H99.5213C99.8348 7.05909 100.096 7.17402 100.305 7.40389C100.535 7.61285 100.65 7.87406 100.65 8.1875V22.4807H103.878C104.004 22.4807 104.108 22.5225 104.192 22.6061C104.275 22.6897 104.317 22.7941 104.317 22.9195V24.3614C104.317 24.4868 104.275 24.5912 104.192 24.6748C104.108 24.7584 104.004 24.8002 103.878 24.8002H99.3333Z" fill="#00092B" fill-opacity="0.8"/>
<path d="M145.072 25.2077C143.819 25.2077 142.669 24.9047 141.625 24.2987C140.601 23.6718 139.786 22.8464 139.18 21.8225C138.574 20.7776 138.271 19.6283 138.271 18.3745V13.4848C138.271 12.2101 138.574 11.0608 139.18 10.0368C139.786 9.01291 140.601 8.19795 141.625 7.59195C142.669 6.96506 143.819 6.65161 145.072 6.65161C146.326 6.65161 147.465 6.96506 148.489 7.59195C149.513 8.19795 150.328 9.01291 150.934 10.0368C151.561 11.0608 151.874 12.2101 151.874 13.4848V18.3745C151.874 19.6283 151.561 20.7776 150.934 21.8225C150.328 22.8464 149.513 23.6718 148.489 24.2987C147.465 24.9047 146.326 25.2077 145.072 25.2077ZM145.072 22.8882C145.887 22.8882 146.619 22.7001 147.267 22.324C147.935 21.9269 148.458 21.3941 148.834 20.7254C149.231 20.0567 149.429 19.3253 149.429 18.5313V13.328C149.429 12.5131 149.231 11.7817 148.834 11.1339C148.458 10.4652 147.935 9.94281 147.267 9.56667C146.619 9.16964 145.887 8.97112 145.072 8.97112C144.258 8.97112 143.516 9.16964 142.847 9.56667C142.199 9.94281 141.677 10.4652 141.28 11.1339C140.904 11.7817 140.716 12.5131 140.716 13.328V18.5313C140.716 19.3253 140.904 20.0567 141.28 20.7254C141.677 21.3941 142.199 21.9269 142.847 22.324C143.516 22.7001 144.258 22.8882 145.072 22.8882Z" fill="#00092B" fill-opacity="0.8"/>
<path d="M160.857 25.1136C159.916 25.1136 158.976 24.9883 158.036 24.7375C157.116 24.4868 156.322 24.1211 155.654 23.6404C155.465 23.536 155.413 23.3688 155.497 23.1389C155.601 22.9091 155.706 22.6897 155.81 22.4807C155.936 22.2508 156.051 22.0314 156.155 21.8225C156.26 21.6553 156.395 21.5717 156.563 21.5717C156.604 21.5717 156.646 21.5821 156.688 21.603C156.73 21.603 156.771 21.6135 156.813 21.6344C157.419 21.9896 158.067 22.2926 158.757 22.5434C159.446 22.7732 160.188 22.8882 160.982 22.8882C162.069 22.8882 162.936 22.6479 163.584 22.1672C164.232 21.6657 164.555 20.9657 164.555 20.0671C164.555 19.5029 164.409 19.0537 164.117 18.7193C163.824 18.3641 163.396 18.0611 162.831 17.8103C162.288 17.5596 161.63 17.2879 160.857 16.9954C159.77 16.5774 158.819 16.1595 158.004 15.7416C157.21 15.3028 156.594 14.7594 156.155 14.1117C155.716 13.4639 155.497 12.6176 155.497 11.5727C155.497 10.4443 155.748 9.51443 156.249 8.78305C156.771 8.05168 157.461 7.51881 158.318 7.18447C159.195 6.82923 160.157 6.65161 161.202 6.65161C162.1 6.65161 162.978 6.77699 163.834 7.02775C164.691 7.27851 165.464 7.63375 166.154 8.09347C166.342 8.21885 166.384 8.38602 166.279 8.59498C166.175 8.80395 166.07 9.01291 165.966 9.22188C165.861 9.43084 165.757 9.65026 165.652 9.88012C165.59 10.0473 165.464 10.1309 165.276 10.1309C165.172 10.1309 165.099 10.11 165.057 10.0682C164.451 9.71294 163.824 9.43084 163.176 9.22188C162.528 8.99202 161.87 8.87709 161.202 8.87709C160.178 8.87709 159.373 9.0965 158.788 9.53532C158.224 9.95325 157.942 10.5906 157.942 11.4474C157.942 12.1369 158.109 12.6802 158.443 13.0773C158.778 13.4743 159.227 13.7878 159.791 14.0176C160.355 14.2475 160.972 14.4878 161.64 14.7385C162.372 15.0102 163.061 15.2819 163.709 15.5535C164.357 15.8252 164.921 16.1491 165.402 16.5252C165.903 16.9013 166.29 17.3611 166.561 17.9044C166.854 18.4477 167 19.1164 167 19.9104C167 20.997 166.739 21.9269 166.217 22.7001C165.715 23.4733 165.005 24.0688 164.085 24.4868C163.166 24.9047 162.09 25.1136 160.857 25.1136Z" fill="#00092B" fill-opacity="0.8"/>
<path d="M131.054 8.34422C131.848 7.73823 132.475 7.34119 132.934 7.15313C133.394 6.96506 133.875 6.87102 134.376 6.87102H135.317C135.463 6.87102 135.567 6.91282 135.63 6.9964C135.714 7.07999 135.756 7.18447 135.756 7.30985V8.84574C135.756 8.97112 135.714 9.0756 135.63 9.15919C135.547 9.24277 135.442 9.28457 135.317 9.28457H134.627C134.314 9.28457 134 9.32636 133.687 9.40995C133.394 9.49353 133.049 9.6607 132.652 9.91146C132.255 10.1413 131.733 10.5175 131.085 11.0399L131.054 8.34422Z" fill="#00092B" fill-opacity="0.8"/>
<path d="M126.791 9.28457V24.0467C126.791 24.4629 127.128 24.8002 127.544 24.8002H132.872C132.997 24.8002 133.102 24.7584 133.185 24.6748C133.269 24.5912 133.311 24.4868 133.311 24.3614V22.9195C133.311 22.7941 133.269 22.6897 133.185 22.6061C133.102 22.5225 132.997 22.4807 132.872 22.4807H129.236V8.1875C129.236 7.87405 129.121 7.61285 128.891 7.40388C128.682 7.17402 128.421 7.05909 128.107 7.05909H124.189C124.064 7.05909 123.959 7.10088 123.876 7.18447C123.792 7.26806 123.75 7.37254 123.75 7.49792V8.84574C123.75 8.97112 123.792 9.0756 123.876 9.15919C123.959 9.24277 124.064 9.28457 124.189 9.28457H126.791Z" fill="#00092B" fill-opacity="0.8"/>
<path d="M106.873 11.3883C106.873 11.1386 107.075 10.9362 107.325 10.9362H110.037C110.287 10.9362 110.489 11.1386 110.489 11.3883V14.1008C110.489 14.3505 110.287 14.5529 110.037 14.5529H107.325C107.075 14.5529 106.873 14.3505 106.873 14.1008V11.3883Z" fill="#00092B" fill-opacity="0.8"/>
<path d="M112.599 11.3883C112.599 11.1386 112.801 10.9362 113.051 10.9362H120.887C121.137 10.9362 121.339 11.1386 121.339 11.3883V14.1008C121.339 14.3505 121.137 14.5529 120.887 14.5529H113.051C112.801 14.5529 112.599 14.3505 112.599 14.1008V11.3883Z" fill="#00092B" fill-opacity="0.8"/>
<path d="M112.599 17.4161C112.599 17.1664 112.801 16.964 113.051 16.964H120.887C121.137 16.964 121.339 17.1664 121.339 17.4161V20.1286C121.339 20.3783 121.137 20.5807 120.887 20.5807H113.051C112.801 20.5807 112.599 20.3783 112.599 20.1286V17.4161Z" fill="#00092B" fill-opacity="0.8"/>
<path d="M106.873 17.4161C106.873 17.1664 107.075 16.964 107.325 16.964H110.037C110.287 16.964 110.489 17.1664 110.489 17.4161V20.1286C110.489 20.3783 110.287 20.5807 110.037 20.5807H107.325C107.075 20.5807 106.873 20.3783 106.873 20.1286V17.4161Z" fill="#00092B" fill-opacity="0.8"/>
<rect width="48.2226" height="48.2226" rx="24.1113" fill="#00092B" fill-opacity="0.8"/>
<path d="M9.53607 32.9813C9.22262 32.9813 8.95097 32.8769 8.72111 32.6679C8.51214 32.438 8.40766 32.1664 8.40766 31.8529V17.5597H5.14781C5.02243 17.5597 4.91795 17.518 4.83436 17.4344C4.75078 17.3508 4.70898 17.2463 4.70898 17.1209V15.6791C4.70898 15.5537 4.75078 15.4492 4.83436 15.3656C4.91795 15.282 5.02243 15.2402 5.14781 15.2402H9.72414C10.0376 15.2402 10.2988 15.3552 10.5078 15.585C10.7376 15.794 10.8525 16.0552 10.8525 16.3686V30.6618H14.0811C14.2064 30.6618 14.3109 30.7036 14.3945 30.7872C14.4781 30.8708 14.5199 30.9753 14.5199 31.1007V32.5425C14.5199 32.6679 14.4781 32.7724 14.3945 32.856C14.3109 32.9396 14.2064 32.9813 14.0811 32.9813H9.53607Z" fill="white"/>
<path d="M36.9937 17.4657V32.2279C36.9937 32.644 37.3311 32.9813 37.7472 32.9813H43.0746C43.2 32.9813 43.3045 32.9395 43.388 32.856C43.4716 32.7724 43.5134 32.6679 43.5134 32.5425V31.1007C43.5134 30.9753 43.4716 30.8708 43.388 30.7872C43.3045 30.7036 43.2 30.6618 43.0746 30.6618H39.4386V16.3686C39.4386 16.0552 39.3237 15.794 39.0938 15.585C38.8849 15.3552 38.6236 15.2402 38.3102 15.2402H34.3921C34.2667 15.2402 34.1622 15.282 34.0787 15.3656C33.9951 15.4492 33.9533 15.5537 33.9533 15.6791V17.0269C33.9533 17.1523 33.9951 17.2567 34.0787 17.3403C34.1622 17.4239 34.2667 17.4657 34.3921 17.4657H36.9937Z" fill="white"/>
<path d="M17.0754 19.5694C17.0754 19.3197 17.2778 19.1173 17.5274 19.1173H20.24C20.4897 19.1173 20.6921 19.3197 20.6921 19.5694V22.2819C20.6921 22.5316 20.4897 22.734 20.24 22.734H17.5274C17.2778 22.734 17.0754 22.5316 17.0754 22.2819V19.5694Z" fill="white"/>
<path d="M22.8018 19.5694C22.8018 19.3197 23.0042 19.1173 23.2539 19.1173H31.0901C31.3397 19.1173 31.5422 19.3197 31.5422 19.5694V22.2819C31.5422 22.5316 31.3397 22.734 31.0901 22.734H23.2539C23.0042 22.734 22.8018 22.5316 22.8018 22.2819V19.5694Z" fill="white"/>
<path d="M22.8018 25.5972C22.8018 25.3476 23.0042 25.1452 23.2539 25.1452H31.0901C31.3397 25.1452 31.5422 25.3476 31.5422 25.5972V28.3098C31.5422 28.5595 31.3397 28.7619 31.0901 28.7619H23.2539C23.0042 28.7619 22.8018 28.5595 22.8018 28.3098V25.5972Z" fill="white"/>
<path d="M17.0754 25.5972C17.0754 25.3476 17.2778 25.1452 17.5274 25.1452H20.24C20.4897 25.1452 20.6921 25.3476 20.6921 25.5972V28.3098C20.6921 28.5595 20.4897 28.7619 20.24 28.7619H17.5274C17.2778 28.7619 17.0754 28.5595 17.0754 28.3098V25.5972Z" fill="white"/>
</svg>
