<svg width="49" height="49" viewBox="0 0 49 49" fill="none" xmlns="http://www.w3.org/2000/svg">
<rect width="48.2226" height="48.2226" rx="24.1113" fill="#00092B" fill-opacity="0.8"/>
<path d="M9.53607 32.9813C9.22262 32.9813 8.95097 32.8769 8.72111 32.6679C8.51214 32.438 8.40766 32.1664 8.40766 31.8529V17.5597H5.14781C5.02243 17.5597 4.91795 17.518 4.83436 17.4344C4.75078 17.3508 4.70898 17.2463 4.70898 17.1209V15.6791C4.70898 15.5537 4.75078 15.4492 4.83436 15.3656C4.91795 15.282 5.02243 15.2402 5.14781 15.2402H9.72414C10.0376 15.2402 10.2988 15.3552 10.5078 15.585C10.7376 15.794 10.8525 16.0552 10.8525 16.3686V30.6618H14.0811C14.2064 30.6618 14.3109 30.7036 14.3945 30.7872C14.4781 30.8708 14.5199 30.9753 14.5199 31.1007V32.5425C14.5199 32.6679 14.4781 32.7724 14.3945 32.856C14.3109 32.9396 14.2064 32.9813 14.0811 32.9813H9.53607Z" fill="white"/>
<path d="M36.9937 17.4657V32.2279C36.9937 32.644 37.3311 32.9813 37.7472 32.9813H43.0746C43.2 32.9813 43.3045 32.9395 43.388 32.856C43.4716 32.7724 43.5134 32.6679 43.5134 32.5425V31.1007C43.5134 30.9753 43.4716 30.8708 43.388 30.7872C43.3045 30.7036 43.2 30.6618 43.0746 30.6618H39.4386V16.3686C39.4386 16.0552 39.3237 15.794 39.0938 15.585C38.8849 15.3552 38.6236 15.2402 38.3102 15.2402H34.3921C34.2667 15.2402 34.1622 15.282 34.0787 15.3656C33.9951 15.4492 33.9533 15.5537 33.9533 15.6791V17.0269C33.9533 17.1523 33.9951 17.2567 34.0787 17.3403C34.1622 17.4239 34.2667 17.4657 34.3921 17.4657H36.9937Z" fill="white"/>
<path d="M17.0754 19.5694C17.0754 19.3197 17.2778 19.1173 17.5274 19.1173H20.24C20.4897 19.1173 20.6921 19.3197 20.6921 19.5694V22.2819C20.6921 22.5316 20.4897 22.734 20.24 22.734H17.5274C17.2778 22.734 17.0754 22.5316 17.0754 22.2819V19.5694Z" fill="white"/>
<path d="M22.8018 19.5694C22.8018 19.3197 23.0042 19.1173 23.2539 19.1173H31.0901C31.3397 19.1173 31.5422 19.3197 31.5422 19.5694V22.2819C31.5422 22.5316 31.3397 22.734 31.0901 22.734H23.2539C23.0042 22.734 22.8018 22.5316 22.8018 22.2819V19.5694Z" fill="white"/>
<path d="M22.8018 25.5972C22.8018 25.3476 23.0042 25.1452 23.2539 25.1452H31.0901C31.3397 25.1452 31.5422 25.3476 31.5422 25.5972V28.3098C31.5422 28.5595 31.3397 28.7619 31.0901 28.7619H23.2539C23.0042 28.7619 22.8018 28.5595 22.8018 28.3098V25.5972Z" fill="white"/>
<path d="M17.0754 25.5972C17.0754 25.3476 17.2778 25.1452 17.5274 25.1452H20.24C20.4897 25.1452 20.6921 25.3476 20.6921 25.5972V28.3098C20.6921 28.5595 20.4897 28.7619 20.24 28.7619H17.5274C17.2778 28.7619 17.0754 28.5595 17.0754 28.3098V25.5972Z" fill="white"/>
</svg>
